<?xml version="1.0" encoding="UTF-8"?>
<svg width="1230px" height="630px" viewBox="0 0 1230 630" version="1.1" xmlns="http://www.w3.org/2000/svg" xmlns:xlink="http://www.w3.org/1999/xlink">
    <!-- Generator: Sketch 62 (91390) - https://sketch.com -->
    <title>Artboard</title>
    <desc>Created with Sketch.</desc>
    <g id="Artboard" stroke="none" stroke-width="1" fill="none" fill-rule="evenodd">
        <rect fill="#FFFFFF" x="0" y="0" width="1230" height="630"></rect>
        <g id="besidesprogramming-logo" transform="translate(55.000000, 37.000000)" stroke="#121212">
            <circle id="Border" stroke-width="12" cx="278.393113" cy="278.393113" r="278.393113"></circle>
            <path d="M156.237238,505.650474 C158.029614,507.549675 159.245477,508.894304 159.88483,509.684362 C160.555669,510.513326 161.626926,511.852398 163.098604,513.701578 C166.854786,511.683811 168.829918,510.612553 169.023998,510.487805 C169.961479,509.885222 168.220685,511.291248 163.801617,514.705882 C164.83826,516.012283 165.541339,516.966372 165.910851,517.568149 C166.280364,518.169927 166.748974,519.124016 167.316681,520.430416 L172.237771,519.325681 C170.61223,515.895314 169.423869,511.54333 168.672688,506.269727 C167.338915,496.9061 168.376682,494.166205 167.316681,484.777618 C166.970657,481.712833 164.622554,478.766402 165.207642,479.655667 C167.718599,483.472023 168.496273,483.880724 171.133233,490.050215 C173.770193,496.219706 174.344322,499.719512 175.301095,504.662841 C176.283423,509.738202 176.902678,514.224094 177.158862,518.120516 L178.464457,518.120516 C179.000086,512.328947 179.267901,509.784709 179.267901,510.487805 C179.267901,512.329029 179.770053,515.643233 180.774357,520.430416 C182.041061,517.24342 182.894784,515.167857 183.335528,514.20373 C183.776273,513.239603 184.529435,511.8001 185.595017,509.885222 C184.667089,507.529617 184.265432,506.441621 184.390048,506.621234 C185.528129,508.261598 186.197664,508.981349 186.398656,508.780488 C195.816404,491.028033 202.645673,477.570357 206.886461,468.407461 C211.207482,459.071207 214.769368,449.003384 219.038345,439.583931 C234.868658,404.654509 236.667061,398.383082 254.992434,358.436155 C264.483305,337.747293 273.973783,319.368527 285.22199,301.893831 C294.6883,287.187406 303.392334,275.989349 311.334094,268.29966 C311.055352,267.139307 310.954856,266.084852 311.032606,265.136298 C311.167057,263.496001 311.69595,263.712933 312.036911,262.022956 C312.37787,260.332978 312.992839,257.937023 313.342506,253.687231 C313.692173,249.437439 313.704688,246.712153 313.342506,246.15495 C313.05189,245.707849 312.58305,248.840212 312.036911,251.678623 C311.49077,254.517033 311.461996,258.030321 310.028498,263.37857 C308.850903,267.772071 308.170732,269.203534 306.814725,271.162123 C306.285978,271.925834 307.213638,267.202571 307.417112,262.625538 C307.620584,258.048505 308.424221,252.927327 307.718599,253.687231 C306.465926,255.036268 305.463348,261.34234 303.500521,266.843419 C301.537695,272.344499 300.839311,271.613864 300.035672,276.434524 C299.172913,281.609815 300.757718,262.223492 300.587843,253.687231 C300.556858,252.130235 299.423723,254.62245 298.880526,256.398852 C298.337329,258.175254 297.575208,260.968377 296.871918,265.839311 C296.168628,270.710246 296.47,273.120713 296.168905,275.17934 C295.86781,277.237968 294.662645,277.74012 293.959436,280.200861 C293.557884,281.606012 293.091425,276.670147 293.155992,273.070301 C293.220559,269.470456 295.364012,253.392626 294.411569,254.99263 C293.574517,256.398787 292.754271,261.788618 291.950827,271.162123 C291.37483,274.748191 290.604863,278.129349 289.640928,281.305595 C288.195024,286.069966 284.997015,295.317809 285.824572,291.348637 C286.075844,290.143472 285.078064,289.79211 285.22199,288.235098 C285.365915,286.678085 286.588387,284.887884 286.929307,279.397418 C287.270225,273.906951 287.130364,265.738685 286.628211,267.496413 C286.049115,269.523474 285.503437,277.95629 283.815964,283.916786 C282.12849,289.877282 281.611186,290.087887 280.953893,290.494782 C280.556667,290.740684 281.524647,287.437423 281.706925,285.222382 C281.889202,283.007341 283.012912,277.438828 282.610995,273.773314 C282.454181,272.343163 280.253831,277.39272 278.995304,281.305595 C277.736776,285.218471 276.584974,287.979297 276.584974,291.348637 C276.584974,293.306834 275.077573,289.309186 275.178948,287.23099 C275.280323,285.152794 275.982391,281.305595 276.584974,278.995696 C276.826018,278.071692 274.348744,280.993894 273.471827,284.368527 C272.594909,287.74316 273.747665,290.102518 272.618168,294.261119 C271.488672,298.41972 269.133697,302.901488 269.554845,301.090387 C270.056997,298.930937 269.459835,297.473428 269.203534,294.261119 C268.947233,291.04881 268.751597,286.075844 268.048388,282.209469 C267.813332,280.917086 267.020714,285.804032 266.441502,289.64132 C265.862288,293.478608 266.617518,294.471844 265.638058,298.177905 C264.658599,301.883967 262.332752,304.836157 262.725576,303.701578 C263.629646,301.090387 263.629646,300.20656 263.629646,296.671449 C263.629646,293.136338 263.127298,286.427547 262.725576,287.833572 C262.327886,289.225488 261.927514,293.737696 260.817398,298.177905 C259.96374,301.592343 256.700143,306.212339 257.704252,303.701578 C258.252298,302.331194 258.119655,294.505083 257.704252,296.018455 C257.001239,298.579627 256.005419,302.306245 253.285117,306.212339 C250.130338,310.742301 244.89957,315.953697 246.255184,313.543563 C246.754378,312.656051 251.012839,304.387193 250.874787,303.199426 C250.761862,302.227841 248.498367,306.727714 246.255184,309.225055 C244.012001,311.722396 240.263542,315.174362 240.681296,314.547867 C241.886853,312.739924 244.285021,307.348038 243.493544,307.668384 C241.384897,308.521846 236.915155,313.543759 235.60956,315.451937 C234.99281,316.353341 236.762462,311.882956 239.325485,307.116212 C241.888508,302.349468 244.823083,297.905933 244.949393,296.671449 C245.04915,295.696463 240.781726,301.190818 238.572257,303.701578 C238.037771,304.308948 241.213976,297.736022 244.34681,292.352941 C247.479644,286.96986 252.632712,283.515065 248.81616,284.82066 C248.422859,284.955204 247.811856,285.322812 244.34681,289.139168 C242.429857,291.250475 250.67373,278.995696 254.088561,275.882353 C257.503391,272.76901 262.725576,267.94835 265.135906,266.341463 C266.174155,265.649297 262.22362,266.341463 260.114386,267.496413 C259.672908,267.738152 261.922329,265.136298 263.077279,264.433286 C266.475325,262.364909 268.400091,260.717752 269.806117,259.813486 C271.212143,258.909221 273.741891,257.526937 274.877853,255.79627 C275.932568,254.189383 272.568149,255.946915 271.212143,256.649928 C270.810067,256.858382 272.618168,254.842181 274.225055,253.034433 C275.831942,251.226686 279.539694,248.057263 286.427155,244.548063 C291.018795,242.208596 295.303825,240.568233 299.282248,239.626973 L298.077279,233.902439 C294.327745,238.622669 292.553475,240.648015 292.754467,239.978479 C292.959563,239.295268 296.871918,234.756098 296.871918,232.546628 C296.871918,231.223896 290.167728,240.732576 290.846289,238.974175 C291.950827,236.111908 291.927818,232.140636 291.197795,230.738881 C290.672536,229.730306 288.944828,232.869119 288.235098,233.902439 C286.201311,236.8635 284.801826,239.524158 283.565084,240.631277 C282.954331,241.178016 284.801569,236.946673 284.519173,236.664275 C284.050498,236.1956 283.113081,237.300335 281.706925,239.978479 C280.017195,242.033047 279.197079,242.769537 279.246576,242.187948 C279.330986,241.196127 280.285009,239.003396 282.108647,235.609756 C285.415043,229.017722 286.737442,226.10524 286.075844,226.872319 C283.603391,229.738922 280.641157,236.361145 275.178948,243.644189 C273.334943,246.102895 271.212143,249.017217 271.212143,247.761836 C271.212143,244.296987 272.366896,242.639885 273.973783,238.723099 C275.58067,234.806313 281.469417,223.567895 282.108647,220.243902 C282.473721,218.345514 278.469866,223.539266 275.982391,228.278336 C272.644902,234.636827 273.365276,236.106916 270.056997,242.439024 C268.69536,245.045223 265.091093,248.260803 266.642559,246.15495 C268.048388,244.246772 269.421099,239.594592 270.056997,237.618364 C270.350179,236.707218 268.638113,238.351668 267.496217,239.978479 C264.972403,243.57405 265.189813,244.229871 262.725576,248.063128 C261.574318,249.853974 261.21912,249.469154 260.114386,250.875179 C259.693891,251.410353 260.267156,248.96152 260.817398,247.460545 C264.234158,238.140143 270.408307,227.022759 268.048388,229.232425 C267.841227,229.426396 265.196559,234.464655 260.114386,244.347202 C257.13508,249.569584 255.762532,251.477762 255.996738,250.071736 C256.259608,248.493636 258.407265,243.443329 260.114386,239.626973 C261.821507,235.810617 265.638058,230.186514 265.638058,229.483501 C265.638058,228.780488 262.826007,230.789096 260.817398,234.505022 C258.80879,238.220947 255.093061,246.506456 254.590909,248.715925 C254.088757,250.925395 247.460153,257.101865 248.364027,255.79627 C249.267901,254.490674 250.874787,249.167862 249.770053,250.674319 C248.629143,252.230104 243.643797,258.407461 244.34681,257.101865 C245.049823,255.79627 246.254988,252.783357 247.460153,251.276901 C248.665318,249.770445 252.531693,241.032999 254.088561,237.618364 C255.645428,234.20373 247.359723,243.393113 244.34681,247.761836 C241.333898,252.13056 235.057193,259.964132 235.60956,257.855093 C236.161927,255.746055 244.296987,243.091822 242.74012,243.995696 C241.918702,244.472588 236.312377,250.523673 232.094495,254.54089 C227.876614,258.558106 226.470196,263.730665 226.470196,261.319943 C226.470196,258.909221 229.985457,253.235294 231.491913,250.071736 C232.998369,246.908178 235.057193,244.548063 236.312377,242.439024 C237.567561,240.329986 230.889331,246.456241 232.094495,244.347202 C233.29966,242.238164 235.110131,240.43717 238.572257,236.915352 C241.484739,233.952654 247.058431,230.487805 247.460153,229.483501 C247.861875,228.479197 242.854168,232.097208 243.895069,230.437394 C245.753032,227.474696 253.604243,224.203166 257.001239,221.398656 C257.922848,220.637788 250.975414,223.55791 253.586605,221.14758 C256.197795,218.73725 258.45748,217.230794 264.784596,214.619603 C269.002673,212.878809 273.17047,211.271988 277.287987,209.799139 C277.823615,208.058345 278.392721,206.987088 278.995304,206.585366 C279.597886,206.183644 281.204773,204.777618 283.815964,202.367288 L283.815964,200.157819 C279.698186,202.601495 276.417459,204.509608 273.973783,205.882157 C270.308269,207.94098 267.04428,210.301291 265.135906,211.857767 C264.559021,212.328276 266.965909,208.320642 267.04428,208.242272 C268.249445,207.037107 269.82279,205.815269 271.764314,204.576758 L272.618168,201.362984 C264.416351,208.493413 260.616668,211.472849 261.21912,210.301291 C261.850502,209.073475 262.122994,208.493544 265.135906,205.581062 C267.144515,203.639407 269.856136,201.162123 273.27077,198.149211 L273.27077,195.186318 C266.407894,200.542476 262.022432,204.107756 260.114386,205.882157 C257.252315,208.543759 254.088561,209.799139 251.376939,211.104735 C250.994912,211.288673 256.499087,206.484935 258.708556,204.576758 C260.181535,203.304639 262.323985,201.630798 265.135906,199.555237 L264.131602,198.149211 C259.64571,201.362984 256.599321,203.5055 254.992434,204.576758 C252.582104,206.183644 247.359527,208.493544 244.949393,209.799139 C242.539259,211.104735 247.460153,207.187948 249.06704,205.581062 C250.673926,203.974175 253.485978,201.161927 254.992434,199.956762 C255.996738,199.153319 258.0723,197.31216 261.21912,194.433286 L261.21912,192.424677 C257.067996,194.634146 253.619885,196.676232 250.874787,198.550933 C246.75714,201.362984 243.041607,202.768814 240.681296,204.576758 C238.320985,206.384701 244.698709,199.605256 248.062932,196.743185 C250.305747,194.835138 252.950349,192.993914 255.996738,191.219512 L255.996738,189.612626 C253.854223,190.683883 251.912634,191.788553 250.17197,192.926633 C247.560976,194.633754 241.93648,197.998369 240.329594,199.203534 C238.722707,200.408699 231.291248,203.12032 234.605256,201.362984 C237.900255,199.615728 240.456128,195.986037 246.255184,191.721664 C249.53651,189.308721 252.666591,187.467496 255.645428,186.197991 L255.394156,183.084452 C251.791979,185.475985 248.310391,187.652043 244.949393,189.612626 C241.554735,191.592843 241.461479,191.081418 238.120124,193.328551 C234.330919,195.876872 234.482486,196.994994 230.688274,199.203534 C229.435955,199.932485 224.96374,200.810421 228.027064,199.203534 C231.090387,197.596648 230.688274,196.743185 232.496021,194.835007 C234.303769,192.926829 239.023998,190.61693 241.333898,188.106169 C243.643797,185.595409 252.782965,181.07604 252.782965,180.071736 C252.782965,179.067432 251.075648,179.569584 248.364027,181.07604 C245.652406,182.582496 240.631081,186.70034 238.823333,187.503587 C237.015586,188.306834 234.70549,188.809182 232.496021,189.612626 C230.286552,190.416069 226.068671,193.228121 226.068671,192.424677 C226.068671,190.59547 229.483109,188.55791 230.688274,187.854897 C231.491717,187.386222 232.948023,186.666536 235.057193,185.695839 L234.203338,182.883592 C228.94761,185.796074 225.482826,187.453176 223.808986,187.854897 C222.135146,188.256619 218.419221,188.959632 212.66121,189.963936 C213.129885,192.943371 213.196839,193.930937 212.862071,192.926633 C212.817906,192.79414 212.499877,191.907004 211.907982,190.265227 C211.107523,190.666949 210.538417,190.985044 210.200665,191.219512 C209.925326,191.410653 210.226618,190.724313 211.104539,189.160493 C210.097864,187.646231 209.344636,186.65873 208.844854,186.197991 C205.917505,183.499327 204.600012,183.100532 205.279378,184.289421 C207.287987,187.804486 207.187556,188.2066 208.392721,190.61693 C209.597886,193.02726 211.506064,201.865136 213.514672,209.296987 C215.523281,216.728838 211.606495,226.269727 212.309507,223.055954 C213.01252,219.842181 211.506064,213.515065 209.397025,209.799139 C207.287987,206.083214 203.772922,202.367288 203.27077,196.743185 C202.768618,191.119082 199.26969,187.591012 199.153123,187.503587 C197.546236,186.298422 198.751401,198.550933 200.056997,203.371593 C201.362592,208.192253 202.567757,220.946915 202.567757,224.763271 C202.567757,228.579627 199.655275,237.819225 199.655275,234.806313 C199.655275,231.7934 198.34968,225.265423 197.747097,223.055954 C197.144515,220.846485 191.922133,212.510368 193.328159,219.540497 C194.734185,226.570627 193.830311,234.806313 193.830311,242.639885 C193.830311,250.473458 188.407068,262.323855 189.411373,258.105777 C190.415677,253.8877 188.507499,245.150646 186.097169,238.723099 C183.686839,232.295552 182.782965,233.500717 183.686839,239.626973 C184.590713,245.753228 184.689583,250.347328 183.686839,258.909221 C182.381244,270.056997 184.791573,280.401722 182.782965,278.995696 C180.774357,277.58967 178.966609,272.166428 177.158862,265.839311 C175.351114,259.512195 174.949393,251.979914 174.34681,261.319943 C173.744228,270.659971 170.229163,279.296987 168.019694,283.01252 C165.810225,286.728053 158.679665,297.675753 157.675361,300.688666 C156.671057,303.701578 158.980957,307.216251 156.671057,303.701578 C154.361157,300.186906 155.867614,293.156385 156.269335,290.143472 C156.671057,287.13056 159.483109,278.694405 160.688274,273.773314 C161.893439,268.852224 161.692578,268.149211 158.980957,270.45911 C156.269335,272.76901 156.871918,276.284075 154.662449,280.803443 C152.45298,285.322812 152.252119,288.134472 151.147384,285.724142 C150.04265,283.313812 150.24351,279.196557 150.645232,275.882353 C151.046954,272.568149 153.758575,262.324247 154.662449,259.411765 C155.566322,256.499283 160.688274,245.351506 163.801617,240.329986 C166.914959,235.308465 170.229163,224.56241 169.023998,225.265423 C167.818833,225.968436 165.207642,230.989957 162.395591,233.902439 C159.583539,236.814921 151.046954,245.251468 152.55341,243.041607 C154.059866,240.831746 159.583539,231.492501 161.692578,228.278336 C163.801617,225.06417 166.111516,217.431851 166.714099,215.624103 C167.316681,213.816356 165.107212,217.431851 160.688274,220.243902 C156.269335,223.055954 149.741358,228.479197 146.728446,231.69297 C143.715533,234.906743 137.689708,242.840746 138.593582,241.635581 C139.497456,240.430416 139.698317,238.321377 142.108647,234.806313 C144.518977,231.291248 147.63232,224.261119 148.234902,221.649928 C148.837485,219.038737 156.168905,208.694405 159.483109,205.581062 C162.797312,202.467719 168.019694,198.350072 159.88483,201.362984 C151.749967,204.375897 152.151688,206.082822 151.147384,207.187948 C148.942761,209.613895 147.73275,211.606887 149.339637,207.187948 C150.946523,202.76901 155.06417,198.149211 157.675361,195.939742 C160.286552,193.730273 169.727011,185.695839 167.316681,186.197991 C164.906351,186.700143 160.787096,188.701383 156.871918,191.721664 C153.356853,194.433286 143.514672,203.672884 146.728446,200.760402 C149.942219,197.84792 140.50176,207.187948 141.405634,205.07891 C142.309507,202.969871 145.623711,199.655667 148.234902,196.743185 C150.846093,193.830703 152.955132,190.516499 155.06417,186.901004 C157.173209,183.285509 164.404199,175.451937 168.019694,172.639885 C171.635189,169.827834 173.744228,168.723099 169.727011,169.727403 C165.709794,170.731707 159.483109,176.355811 153.356853,182.381636 C147.230598,188.407461 142.309507,193.629842 138.593582,196.743185 C134.877657,199.856528 133.873353,198.852224 135.178948,197.446198 C136.484543,196.040172 142.610799,188.106169 145.32242,183.48637 C148.034041,178.866571 155.566322,168.723099 158.980957,165.609756 C162.395591,162.496413 167.316681,160.086083 163.801617,160.789096 C160.286552,161.492109 156.369766,165.208034 151.147384,168.723099 C145.925002,172.238164 144.719837,173.342898 139.597886,178.464849 C134.475935,183.586801 136.886265,181.07604 138.593582,178.464849 C140.300899,175.853659 143.514672,168.92396 147.230598,165.609756 C150.946523,162.295552 153.557714,159.38307 158.980957,153.156385 C164.404199,146.929699 171.233467,142.41033 168.019694,142.912482 C164.805921,143.414634 164.203338,144.418938 160.688274,148.235294 C157.173209,152.05165 153.758575,155.466284 145.32242,161.7934 C136.886265,168.120516 136.886265,171.635581 138.593582,166.51363 C140.300899,161.391679 148.335332,152.05165 155.06417,144.418938 C161.449976,137.175338 163.098604,136.786227 163.098604,132.367288 C163.098604,130.659971 159.483109,133.572453 154.059866,137.991392 C150.444371,140.937351 146.226294,144.72023 141.405634,149.340029 C136.043997,166.825861 132.495455,178.944464 130.76001,185.695839 C124.736197,209.130172 121.671012,223.546183 120.315246,229.483501 C118.836034,235.96143 114.27657,260.98696 111.276509,287.833572 C108.369626,313.846361 107.002671,341.580023 106.65671,355.121951 C105.953697,382.639885 108.866179,429.54089 109.267901,434.361549 C109.669622,439.182209 114.188991,464.390244 116.599321,473.629842 C118.206208,479.789575 120.48263,487.288379 123.428589,496.126255 C125.102429,493.381157 126.140211,490.870397 126.541932,488.593974 C127.144515,485.17934 127.144515,489.698709 127.144515,491.908178 C127.144515,493.381157 126.508455,496.427547 125.236337,501.047346 L126.541932,504.060258 C128.885308,495.891917 131.630406,487.991392 134.777226,480.35868 C139.497456,468.909613 140.726349,466.865412 145.32242,459.971306 C153.356853,447.919656 160.587843,441.190818 158.277944,444.605452 C157.236866,446.144436 153.256423,454.849354 152.151688,458.163558 C151.046954,461.477762 148.234902,474.734577 147.230598,480.35868 C146.226294,485.982783 142.409938,494.017217 140.50176,497.431851 C139.229641,499.708273 136.384113,504.060258 131.965175,510.487805 L136.886265,514.20373 C139.364128,511.141174 142.025599,508.195215 144.870679,505.365854 C149.138299,501.121811 150.081737,500.258744 155.06417,496.126255 C158.618322,493.178399 158.866455,494.191304 162.395591,491.205165 C164.415333,489.496182 165.740697,487.267218 166.161927,486.736011 C167.316681,485.27977 164.261796,491.303513 161.692578,495.573888 C159.979765,498.420804 158.071653,501.684793 155.96824,505.365854 C156.044102,505.446009 156.118993,505.525231 156.192914,505.60352 C153.197841,509.805472 151.73136,513.365888 145.322616,518.823333 C144.842693,519.232018 145.411799,519.650477 147.029933,520.078714 C151.716686,517.701861 155.918025,516.12845 159.63395,515.358484 C158.539977,512.424646 156.855103,508.505975 156.237238,505.650474 Z M174.572358,532.668655 L136.082822,518.723099 L87.0727787,479.454806 C83.8588519,450.395976 83.0887547,421.472016 84.7624862,392.682927 C88.7797028,324.992826 89.4831086,325.494586 99.6261878,263.529412 C105.609156,230.783605 114.112265,198.712826 125.135513,167.317073 C124.873048,165.918126 124.705795,164.512101 124.633754,163.098996 C124.490936,160.297562 125.338693,157.261299 124.633754,157.474892 C122.424285,158.278336 119.712664,167.317073 118.306245,171.936872 C117.63043,174.156789 117.402764,163.199426 124.031172,146.728838 C126.140603,139.296987 128.935242,127.686912 127.545843,129.354376 C124.031172,133.572453 124.000488,133.873939 123.126905,136.786227 C119.813094,147.833572 120.214816,154.662841 115.695447,172.539455 C114.088561,178.364419 108.765749,185.193687 109.669622,182.180775 C110.541272,179.275277 109.468761,175.451937 110.774357,171.535151 C111.759935,168.578416 106.154558,179.469154 106.154558,181.578192 C106.154558,185.166493 101.032606,195.437394 102.539063,191.219512 C104.045519,187.001631 103.041215,188.407461 103.041215,187.604017 C103.041215,184.992826 97.0367912,195.497155 96.9149594,193.328551 C96.5828714,187.417386 97.5124609,181.065125 99.1244286,172.539455 C99.9499264,168.173409 101.066677,165.362655 101.83605,159.28264 C102.188375,156.498367 101.434328,157.274032 101.434328,154.662841 C101.434328,150.908617 99.4489458,157.301006 99.1244286,159.985653 C98.019694,169.124821 98.220162,168.321377 96.4128073,177.962697 C93.0962953,190.598899 87.9754754,205.380201 87.4745003,204.074605 C85.4851409,198.890121 87.1736011,192.424677 90.0856911,181.578192 C91.491717,171.936872 93.199034,161.492109 92.2951603,164.1033 C90.1818834,170.208322 85.9680441,185.997131 82.553017,192.424677 C77.3755053,205.404682 71.2043804,219.74175 65.6807075,227.173601 C63.810031,229.690511 64.6764033,223.558106 68.6936199,213.113343 C72.4099377,200.559541 72.5103681,200.559541 76.3267241,187.604017 C79.1737786,177.939016 87.4745003,159.985653 86.2693353,159.985653 C84.6970956,159.985653 77.3310283,179.469154 73.1125583,189.411765 C62.9541055,213.354463 64.6764033,215.423242 61.0609083,219.74175 C59.5304557,221.569791 61.0609083,213.515065 62.0652125,207.890961 C63.5720611,201.764706 63.9618473,197.917839 63.4716306,198.550933 C61.0609083,201.664275 58.3496794,210.10043 56.2402484,217.23099 C52.8256142,227.575323 52.8256142,227.977044 50.6161451,232.195122 C48.4070682,237.618364 43.8876995,242.037303 44.3898516,238.823529 C44.7795384,236.329534 44.2894212,233.400287 45.5946243,228.378766 C47.0010424,217.733142 46.7226486,216.793122 45.5946243,217.733142 C43.1842943,219.74175 41.3765468,224.662841 37.1584693,235.810617 C29.52615,248.263989 32.2373789,242.338398 29.124036,251.025825 C28.0564581,254.004779 30.3066635,238.595208 32.3378093,231.391679 C34.3689552,224.18815 35.4519369,221.95122 38.1631658,217.733142 C39.9277872,214.987779 39.9347954,211.62309 39.8704829,211.004304 C39.7993465,210.319862 38.1631658,212.058627 37.1584693,213.113343 C33.6433675,216.803445 33.7442275,219.74175 29.7270108,227.173601 C26.9640534,231.764987 21.2878126,239.007204 22.7973121,235.810617 C24.5046292,232.195122 24.9063509,227.173601 29.124036,217.733142 C31.2665516,212.644668 33.609928,208.292683 36.1541651,204.677188 C42.2474668,196.642624 44.1557755,193.495739 41.8790912,195.236533 C33.672892,201.511141 33.4731139,202.178471 23.4999327,210.10043 C19.3124252,213.426678 13.9069529,218.345855 14.3611572,217.23099 C15.0116875,215.634234 20.0856909,213.916786 26.1115159,203.472023 C32.3378093,192.424677 30.8317454,196.040172 36.1541651,189.411765 C44.490282,181.578192 48.7083595,178.364419 52.8256142,175.954089 C54.8090556,174.79294 46.5414825,177.793987 40.7743566,180.774749 C37.6031755,182.413786 33.9252282,186.357252 34.0455187,185.193687 C34.2263234,183.44477 36.1541651,178.464849 50.1143853,167.317073 C60.4587182,159.28264 61.0609083,158.880918 68.6936199,155.466284 C70.9084928,154.47542 61.92561,156.299527 59.7557052,157.474892 C54.9350453,160.086083 50.1143853,163.098996 44.3898516,167.317073 C40.2527955,170.36543 52.3231265,157.455743 59.7557052,151.549498 C71.0039118,142.611191 71.3355666,145.830726 79.2392062,142.611191 C81.9512195,141.506456 71.2769571,142.504091 65.6807075,144.418938 C58.8514392,147.833572 54.633754,150.343941 51.5925955,152.855093 C50.5051964,153.752983 54.3058518,147.173358 58.8514392,144.418938 C79.7175386,131.775029 90.0856911,129.354376 96.0106928,125.939742 C97.8968138,124.852753 83.6585366,126.944046 62.7686177,136.786227 C55.6705218,140.130459 72.7922751,128.203682 82.553017,122.525108 C88.0770828,119.311334 104.34681,112.682927 112.682142,109.067432 C113.853622,108.559297 104.602866,107.337288 101.434328,108.257319 C96.9149594,109.569584 111.276901,97.4175036 118.80879,88.579627 C120.009436,86.9662461 112.915756,92.9605463 107.359723,96.1052388 C102.036518,99.1181513 89.2886633,102.291886 92.8977428,100.229555 C98.5218461,97.0157819 105.049823,89.1755401 105.652406,86.3701578 C106.612063,81.902375 105.150254,88.3787661 96.0106928,93.1994261 C92.5349841,95.3923821 88.6796653,97.0157819 85.5659295,98.4218077 C83.5345894,99.3390717 84.6632288,96.0614222 85.5659295,94.6054519 C87.7765717,91.0399014 91.9735492,88.3893957 91.2908561,88.0708055 C90.7960925,87.839916 86.2693353,89.5839311 81.850397,94.6054519 C77.6323195,97.7121255 78.1344716,97.611695 74.1172547,99.1181513 C73.1141902,99.4943009 73.3818739,97.052717 74.9203057,91.7934003 L128.951869,42.5824964 L183.385155,13.4576758 L220.74527,4.82065997 L237.215858,8.63701578 L225.56593,11.8507891 C212.978651,15.5332377 208.559713,17.1066476 212.309115,16.5710187 C218.419283,15.6981376 224.378285,15.6981376 230.186122,16.5710187 C225.834137,18.7135342 220.477717,20.4208513 214.116862,21.6929699 C209.514846,22.6133353 205.028954,24.0863147 200.659186,26.1119082 C205.333893,26.5787739 209.585578,26.5787739 213.414242,26.1119082 C216.159601,25.7771401 218.871092,25.6097561 221.548713,25.6097561 C218.198116,28.0967104 214.716529,30.2727027 211.10395,32.1377331 C206.481235,34.524257 201.325937,36.5998189 195.638058,38.3644189 C202.66591,37.5992213 208.222929,36.5949171 212.309115,35.3515065 C214.619407,34.6484935 210.099645,37.3601148 204.275074,38.9670014 C200.392026,40.0382592 196.977261,41.4777618 194.030779,43.2855093 C199.416419,42.7951941 203.634496,42.2595652 206.685011,41.6786227 C208.794443,41.276901 204.275074,44.7919656 201.262162,45.1936872 C195.772309,45.9256675 190.142058,47.6295994 190.616145,47.7044476 C194.432893,48.3070301 198.294443,46.9816581 201.764314,48.2065997 C203.471238,48.8091822 199.855743,48.2065997 197.144515,48.9096126 C194.985008,49.4695658 192.808885,50.5408235 190.616145,52.1233859 C187.368712,53.3155459 185.996293,53.9516052 186.498891,54.0315638 C187.954464,54.2631324 191.736103,54.1141159 195.035476,53.3285509 C197.144515,52.8263989 191.648672,55.5762352 188.004954,56.8436155 C183.385155,58.4505022 182.17999,57.8479197 178.866179,58.4505022 C178.068067,58.5956305 177.364923,59.2651666 176.756747,60.4591105 C180.337718,60.5945572 184.221158,60.2597891 188.407068,59.4548063 C191.018259,58.9526542 181.465016,62.7861399 173.342113,68.6944046 C170.028302,71.1047346 162.495628,79.6752879 162.495628,84.3615495 C162.495628,85.0645624 196.240641,58.4505022 203.471238,51.0186514 C207.463468,46.9153037 210.691651,41.3563555 218.33494,32.1377331 C223.848036,25.4883498 224.513012,24.2554805 231.089995,19.2826399 C234.940634,16.3711811 239.192058,14.4295264 243.844265,13.4576758 C248.927376,12.386418 254.015851,11.8507891 259.109688,11.8507891 C269.144685,11.8507891 277.57784,13.4576758 283.414242,13.4576758 C288.937915,13.4576758 292.302756,11.5394362 301.190426,10.9469154 C303.299615,10.8063004 305.408523,11.1075916 307.517149,11.8507891 C303.70201,12.0185707 299.952608,12.989398 296.268942,14.7632712 C293.557714,16.0688666 287.431066,18.4791966 282.409545,19.6843615 C281.007639,20.020819 287.816756,20.5997625 292.45298,20.8895265 C297.458076,21.202345 301.793008,20.8895265 301.793008,20.8895265 C302.40494,20.8895265 296.649493,23.8428137 291.247815,24.3041607 C285.44182,24.8000394 279.349042,24.6661322 272.969479,23.902439 C277.700325,25.6498769 280.847014,26.7546115 282.409545,27.2166428 C286.964616,28.5635498 288.660656,28.58232 288.837485,29.0243902 C289.239206,30.0286944 288.837485,31.3342898 280.60219,31.3342898 C273.93142,31.3342898 267.144122,27.8612765 267.144122,29.0243902 C267.144122,31.7360115 278.794443,35.954089 279.698317,35.954089 C281.706925,35.954089 274.375505,36.7575323 269.15273,35.3515065 C262.195728,33.478608 256.699359,32.1377331 254.088561,30.8321377 C253.065034,30.3202976 256.658857,34.7214047 263.930741,36.7575323 C266.441502,37.4605452 269.964691,41.276901 269.15273,41.276901 C267.144122,41.276901 264.432893,40.7747489 259.511803,38.9670014 C254.017457,36.9486702 248.263204,35.3515065 242.036911,35.3515065 C238.722707,35.3515065 231.075021,36.7575323 230.186122,36.7575323 C227.97626,36.7575323 237.907467,36.8708286 244.949393,39.7704448 C251.778661,42.5824964 255.092472,42.5824964 259.109688,42.5824964 C260.425959,42.5824964 256.626832,44.7919656 253.485978,44.7919656 C248.592398,44.7919656 248.062736,42.5824964 239.42572,42.5824964 C234.115386,42.5824964 229.997426,41.9128147 228.779703,42.5824964 C227.98862,43.0175492 236.086823,46.0754918 245.551975,47.2022956 C249.770053,47.7044476 255.092472,50.5164993 260.817398,51.7216643 C264.873236,52.5754662 265.738096,52.1233859 269.15273,52.1233859 C269.990126,52.1233859 266.642363,54.9354376 261.721272,54.9354376 C258.414163,54.9354376 251.879091,54.0315638 246.254595,52.9268293 C245.033108,52.686911 249.470629,55.3340386 252.983826,56.8436155 C255.898175,58.095875 258.498585,58.4505022 259.511803,58.4505022 C261.721272,58.4505022 254.496115,60.9371675 246.254595,58.4505022 C234.995263,55.0532899 227.452115,54.9825785 227.273639,54.9354376 C225.666958,54.5110624 231.916444,55.977174 235.609364,58.4505022 C237.389706,59.6428842 239.265917,62.7316382 238.220162,62.266858 C232.796919,59.856528 231.160166,60.8682768 224.360765,58.4505022 C221.348114,57.3792444 217.699273,56.7097082 213.414242,56.4418938 C210.771275,56.2298961 209.499156,56.3638034 209.597886,56.8436155 C209.733363,57.5020147 211.239689,58.5063189 214.116862,59.856528 C218.5358,61.1956002 222.753878,61.9990435 226.771095,62.266858 C228.171348,62.3602082 225.059966,64.3433421 223.557714,64.6771879 C219.636919,65.5485071 217.431459,64.6771879 215.925002,64.6771879 C215.124693,64.6771879 219.985085,67.8646941 218.33494,67.58967 C214.116862,66.8866571 211.054617,67.1999949 206.685011,68.0918221 C201.764314,69.0961263 198.700006,70.6037891 190.616145,72.6111908 C183.735874,74.3197145 177.560976,74.9210904 175.451545,76.7288379 C171.990089,79.6952479 166.767806,83.2940047 159.784694,87.5251076 C172.639591,80.7293164 185.528063,75.6241033 198.45011,72.2094692 C207.440996,69.833639 211.984978,70.471781 219.138383,69.0961263 C224.360765,68.0918221 234.121448,65.8904946 249.16747,65.2797704 C261.338091,64.78576 265.972454,65.4135905 281.706925,69.0961263 C291.147384,71.3055954 298.526257,74.7796617 304.705097,77.733142 C306.510279,78.5960177 297.366883,76.3271162 291.247815,76.3271162 C286.219107,76.3271162 281.706925,76.7288379 282.409545,77.733142 C283.202215,78.8661594 285.724142,78.8378766 296.771487,78.8378766 C302.596059,78.8378766 306.037752,81.1420171 308.019694,82.3529412 C309.827834,83.4576758 317.223015,90.8303369 315.953304,90.3873745 C311.635189,88.8809182 302.599873,85.9241809 300.286552,85.6671449 C298.984378,85.5224592 308.823137,88.7804878 318.564495,97.0157819 C325.758433,103.0975 330.613792,111.108159 329.41098,110.373027 C325.795878,108.163558 323.8877,106.15495 317.560584,102.037303 C315.398905,100.630496 312.921491,100.027913 310.12834,100.229555 C311.098011,101.890528 312.26983,103.162646 313.643797,104.045911 C315.800924,105.432635 317.31346,105.398423 319.468761,106.857963 C322.283317,108.763942 325.061893,111.241225 327.804486,114.289813 C326.771798,111.651186 326.53746,110.546451 327.101473,110.97561 C330.875057,113.846937 332.502451,115.674671 337.043691,121.319943 C340.76001,125.939742 344.397156,132.012467 344.676796,131.061693 C345.178948,129.354376 341.450196,126.599756 337.847135,120.516499 C334.520301,114.899613 331.219512,109.864206 330.415677,108.257319 C330.070934,107.56817 334.852454,112.803595 339.153123,117.503587 C341.380235,119.937489 342.811342,124.527315 342.668188,122.525108 C342.266073,116.901004 329.913525,102.037303 323.184687,92.697274 C321.552418,90.4315871 331.816579,99.4918014 338.249249,108.257319 C340.76001,111.678623 348.621619,124.657534 354.318116,143.012912 C356.728446,150.779532 358.469109,158.713404 359.540105,166.814529 L364.762486,169.124821 C361.730583,165.08425 360.458595,163.242895 360.946523,163.600756 C362.95487,165.073735 365.599538,166.647275 368.880526,168.321377 C364.32768,162.764227 361.683012,159.5838 360.946523,158.780096 C360.409783,158.19437 361.68177,158.596222 364.762486,159.985653 C361.262314,154.546619 359.856288,151.968775 360.544409,152.252119 C362.820832,153.189469 366.235466,155.532976 370.788311,159.28264 C369.848911,157.485718 368.844738,155.945785 367.775792,154.662841 C365.767183,152.252119 363.959043,151.44946 362.753878,149.64132 C362.435505,149.163656 363.908484,149.565378 367.172816,150.846485 C364.695272,147.498543 362.82057,145.22199 361.548713,144.016825 C360.809776,143.316634 364.291364,145.191466 371.993476,149.64132 C370.738593,147.716695 369.332698,145.975901 367.775792,144.418938 C364.587675,141.230709 359.026736,137.825959 360.946523,138.593974 C362.95487,139.397418 366.971955,141.941655 372.99778,146.226686 C370.145901,143.813172 367.400804,141.268934 364.762486,138.593974 C361.488972,135.274994 358.2542,132.30496 357.73275,131.563845 C356.460631,129.755836 360.477717,131.831398 369.784007,137.790531 C366.221575,133.84363 364.27992,131.768068 363.959043,131.563845 C361.013085,129.688882 363.691229,131.429676 371.993476,136.786227 C371.822439,135.634275 371.420717,134.696925 370.788311,133.974175 C368.924868,131.844526 368.365876,132.413904 366.369373,130.35868 C364.951242,128.89884 365.485444,128.102005 363.959043,126.944046 C362.572962,125.892535 359.904473,125.262451 359.540105,124.533716 C359.30189,124.057286 362.027933,124.283434 363.959043,125.336767 C366.446871,126.693764 365.949689,127.836575 368.377981,129.354376 C369.966906,130.347531 372.346533,130.958876 371.993476,130.35868 C371.342229,129.251559 369.09814,128.272397 366.369373,125.939742 C362.871455,122.949585 359.540105,120.647996 359.540105,119.713056 C359.540105,118.940679 362.971552,121.327957 366.369373,123.026868 C369.198238,124.4413 373.091437,128.481215 372.99778,127.747097 C372.395591,123.026868 369.695475,124.518034 366.369373,121.319943 C361.861902,116.985949 357.73275,112.682927 356.527192,111.47737 C355.726721,110.676898 364.71475,116.449468 366.369373,117.905308 C368.880526,120.114778 362.009297,111.649912 362.753878,111.879091 C365.365462,112.682927 370.5336,119.436006 370.286552,117.905308 C369.784007,114.791573 362.051258,108.665318 359.540105,104.045911 C358.814478,102.711079 362.73481,105.880872 365.566322,108.257319 C367.42805,109.81984 369.704473,112.36617 372.395591,115.896308 C367.573615,104.526055 363.623221,96.2239379 360.544409,90.989957 C358.5358,87.5753228 369.217201,97.2182593 370.788311,100.229555 C371.591754,101.769489 373.198641,106.288857 375.608971,113.787661 C376.412414,108.230511 375.943739,102.639885 374.202945,97.0157819 C373.640494,95.1986301 376.928129,99.3622647 379.42572,106.857963 C380.094995,108.866571 380.094995,114.256206 379.42572,123.026868 C381.567974,116.130907 383.576451,111.645146 385.451152,109.569584 C386.117644,108.831681 385.460208,114.705906 384.748532,119.713056 C384.285632,122.969887 383.080467,127.723593 381.133037,133.974175 C384.681578,126.341463 387.0583,120.315507 388.263204,115.896308 C388.774235,114.022009 390.271812,120.516499 388.665318,124.533716 C386.443609,130.089343 385.905931,130.050561 383.643404,135.781923 C382.892823,137.683273 381.977794,141.178038 382.6391,140.401722 C383.738163,139.111519 385.746902,135.763838 388.665318,130.35868 C384.308123,139.849667 382.466898,144.53642 383.141645,144.418938 C385.451152,144.016825 388.277126,132.753589 392.883003,128.149211 C394.088561,126.944046 394.090046,131.912921 392.883003,134.878049 C389.470247,143.261558 382.932609,151.515936 383.643404,152.252119 C384.338634,152.972177 392.32549,140.647192 395.695054,137.790531 C396.945289,136.730603 394.713336,141.404273 392.883003,144.418938 C389.591385,149.840428 388.707333,150.004303 385.451152,155.466284 C382.480648,160.449066 379.293623,165.99183 379.927872,165.810617 C380.699649,165.590109 386.621948,156.602099 390.271812,153.658537 C391.291766,152.835958 389.306616,158.386307 387.058039,162.195122 C385.368846,165.056409 383.643404,166.814529 379.023998,171.535151 C376.840852,173.76613 373.402484,180.039428 374.202945,179.870875 C376.110731,179.469154 380.147627,171.720066 383.141645,170.329986 C384.365705,169.761672 382.558133,176.46768 379.42572,180.774749 C376.211947,185.193687 374.746162,186.308154 370.788311,192.424677 C367.012824,198.259373 367.605689,198.742451 363.959043,204.677188 C362.483738,207.078175 361.855206,206.620177 360.544409,209.096126 C359.610526,210.860128 358.94099,212.801783 358.5358,214.92109 C360.454295,212.677273 362.262042,210.333897 363.959043,207.890961 C370.552709,198.39898 372.395591,195.035868 376.814136,188.608321 C377.285947,187.92199 377.587369,189.194109 377.718403,192.424677 C379.928133,188.139646 381.401113,184.925873 382.137341,182.783357 C382.368675,182.110146 382.033907,185.457826 381.133037,192.826399 C382.320275,188.533837 383.759647,184.382713 385.451152,180.373027 C386.981131,176.746236 387.661014,176.15495 388.665318,174.246772 C388.918204,173.766289 388.516482,177.147447 387.460153,184.390244 C388.88056,179.789715 390.688176,175.504684 392.883003,171.535151 C394.310796,168.952865 396.900219,165.549357 396.900219,166.814529 C396.900219,169.365713 392.280813,173.644189 392.883003,178.56528 C393.046985,179.905342 395.695567,175.95441 396.197599,174.949785 C396.666013,174.012434 396.666013,173.00813 396.197599,171.936872 C402.944385,162.848732 406.86104,158.028072 407.947565,157.474892 C408.702133,157.090721 406.224849,161.375753 400.515714,170.329986 C403.816312,166.365757 405.557106,164.624963 405.738096,165.107604 C405.948339,165.668253 399.0336,174.47008 400.515714,173.543759 C402.122601,172.539455 412.31069,159.169039 414.174251,157.474892 C415.647231,156.13582 412.232728,161.960784 403.930741,174.949785 C407.4994,170.155806 411.315625,165.669915 415.379416,161.492109 C420.029588,156.711472 422.607021,154.14023 426.225901,152.252119 C427.22682,151.7299 424.820268,155.466284 422.209077,157.474892 C418.560738,160.281307 415.413787,164.164616 412.768225,169.124821 C418.712791,162.424652 423.466498,158.005714 427.029344,155.868006 C428.368417,155.064562 426.560669,157.642146 421.606102,163.600756 C424.045537,161.715061 426.354129,159.673106 428.531878,157.474892 C430.588066,155.399381 430.038132,154.63438 432.251726,152.855093 C434.910968,150.717594 437.568984,149.43782 438.77578,148.235294 C439.884437,147.13056 438.277551,150.846485 436.465881,152.855093 C435.504701,153.920759 434.769519,155.326785 434.260334,157.073171 C436.697866,154.804622 439.242104,152.72906 441.893046,150.846485 C444.846528,148.749061 446.714099,147.73275 448.120124,147.230598 C448.761165,147.001654 446.685472,149.746884 441.893046,155.466284 C445.011198,153.195266 448.057718,151.487819 451.032606,150.343941 C456.25538,148.335725 459.238851,150.078329 459.76966,150.343941 C460.773964,150.846485 452.594769,151.077652 450.530062,153.658537 C449.726618,154.662841 447.379166,154.430596 444.504237,155.868006 C442.257411,156.991375 439.203886,158.949151 440.286552,158.780096 C443.499932,158.278336 450.954691,157.474892 452.337809,157.474892 C453.566619,157.474892 446.394539,161.264583 443.499932,162.195122 C440.688274,163.098996 432.850386,163.780198 432.850386,165.107604 C432.850386,166.312769 441.696609,164.578712 446.011086,165.810617 C447.417112,166.212077 446.914828,166.714229 444.504237,167.317073 C441.025788,167.073852 437.611154,167.241105 434.260334,167.818833 C431.78619,168.245409 428.840232,169.249714 425.422458,170.831746 C431.850004,170.831746 436.603842,170.831746 439.683969,170.831746 C442.395591,170.831746 435.303458,173.016459 432.850386,174.246772 C431.448675,174.949785 428.963216,173.709148 425.422458,174.246772 C423.341075,174.562806 421.437483,174.169922 421.606102,174.949785 C421.839205,176.027884 427.342996,177.683424 426.225901,177.962697 C423.815571,178.56528 422.567326,179.467441 418.79405,180.373027 C416.288047,180.974468 413.743809,181.37619 411.161338,181.578192 C416.681228,182.674901 419.895001,183.612251 420.802658,184.390244 C421.550211,185.031003 417.559792,184.901127 414.877657,184.390244 C412.332343,183.905422 407.369737,183.8877 405.738096,183.8877 C403.929956,183.8877 408.77026,185.542284 411.964782,186.599713 C415.900819,187.902594 419.354273,187.787485 419.999215,188.608321 C420.459007,189.193511 417.080239,189.586825 414.174251,189.411765 C410.554427,189.193703 407.139923,188.39026 403.930741,187.001435 L399.009651,188.608321 C404.5668,189.210904 407.947827,189.780009 409.15273,190.315638 C409.401876,190.426394 406.121346,190.660732 399.311138,191.018651 L405.738096,193.077475 C409.334693,191.679501 411.494143,191.060181 412.216447,191.219512 C412.632355,191.311257 410.540054,192.867863 405.939546,195.889331 C414.092705,192.429849 422.327803,189.467217 430.644839,187.001435 C433.836135,186.0553 438.21468,186.390438 437.273247,186.599713 C436.068474,186.867527 432.65384,188.206535 427.029344,190.616734 L421.054323,193.830703 C423.305889,193.979568 425.46364,193.728492 427.527574,193.077475 C431.4364,191.844532 431.664177,190.271995 436.068671,189.863506 C442.7637,189.242583 447.879583,190.40731 449.726618,191.219512 C450.791771,191.687896 445.650704,191.226583 441.893046,192.424677 C439.778352,193.098928 437.769744,194.170185 435.867221,195.638451 C441.406753,194.975604 446.896949,194.841632 452.337809,195.236533 C456.629891,195.548055 461.191936,197.638115 460.773964,198.149015 C460.461527,198.530917 455.603045,197.164304 450.530062,197.446198 C447.468182,197.616339 441.902072,198.700326 443.499932,198.952458 C446.362788,199.404199 452.948759,200.302162 461.32692,203.12032 C469.519777,205.876148 474.729248,208.858262 476.64197,210.10043 C477.311898,210.535498 473.830311,210.20073 466.197206,209.096126 C469.575743,210.810287 472.873404,212.684923 476.090191,214.720034 C481.107191,217.894053 481.208095,217.789948 485.881568,221.549498 C490.321861,225.121466 496.598916,230.673217 498.134079,233.400287 C499.038541,235.006978 493.150076,231.231536 488.493348,228.378766 C484.165982,225.727768 478.541683,221.576578 471.620449,215.925199 C478.081473,223.353345 482.115624,227.722069 483.722903,229.031368 C485.079302,230.136298 479.806117,228.378766 476.090191,223.959828 C473.130933,220.44071 467.804093,215.272401 464.992041,214.92109 C463.385706,214.72041 470.065381,224.1556 480.458326,237.216643 C482.216447,239.426112 483.489369,242.097925 482.667795,241.836442 C480.458326,241.133233 476.090191,236.86494 473.880722,234.605452 C471.496279,232.167029 469.136164,229.689745 466.800378,227.173601 C468.365732,232.610411 469.052007,235.087695 468.859201,234.605452 C467.453764,231.090191 466.869432,232.044556 464.992041,229.38307 C460.918636,223.608401 458.931427,219.706097 456.957608,217.23099 C455.641729,215.580919 453.583102,213.856798 450.781726,212.058627 C453.724253,215.377395 456.385463,218.875786 458.765356,222.553802 C463.184294,229.38307 463.154397,235.22561 462.380851,233.400287 C460.423046,228.780488 456.800347,223.352975 449.726618,214.92109 C444.246545,208.388843 434.662645,201.111908 436.671253,203.472023 C437.406681,204.336151 441.432503,209.587392 445.30768,216.327116 C448.361908,221.639042 449.726618,224.432754 449.726618,227.173601 C449.726618,228.629646 443.898189,219.197812 446.011086,224.361549 C446.915155,226.571019 448.266525,227.041695 449.726618,230.186514 C451.450859,233.900262 452.321177,236.760088 452.337574,238.765992 C445.686056,225.283491 434.275383,210.080835 429.590909,207.539259 C434.779813,214.636341 439.366136,222.654036 443.349876,231.592343 C446.396265,233.500521 449.442654,235.994544 452.489044,239.074409 C452.460977,239.017001 452.432823,238.95956 452.404581,238.902086 C456.645098,243.892908 458.765356,246.745728 458.765356,247.460545 C458.765356,249.218077 456.21993,244.102636 453.041411,242.137733 C451.477975,241.171245 449.519582,240.434755 447.166232,239.928264 C449.844295,241.768773 452.371794,243.810858 454.748728,246.054519 C458.790636,249.869802 459.35325,250.491826 463.435959,255.595409 C466.985667,260.032716 472.675557,268.450502 470.013562,265.136298 C469.080864,263.975081 454.949589,250.674319 457.159058,253.687231 C457.865525,254.650596 462.732946,260.416069 466.599517,267.94835 C470.075443,274.719636 470.667537,279.648494 470.415873,283.063128 C470.344144,284.036358 467.784136,276.694632 464.188598,271.162123 C461.958877,267.731217 456.997587,263.48877 457.510564,264.433089 C458.765356,266.742989 461.32692,272.116016 463.63682,277.991392 C466.5078,285.293912 465.567939,292.584808 465.846289,293.859397 C466.197206,295.466284 462.732946,283.414438 459.519173,281.606887 C458.494729,281.0307 460.726981,285.999147 460.773964,290.444763 C460.852225,297.849936 459.871267,307.567757 459.519173,305.70999 C459.290322,304.502501 456.305399,284.519369 456.305399,287.331224 C456.305399,289.00723 455.100234,294.461784 453.743835,301.69297 C452.740058,307.044274 447.618364,314.698905 449.325485,311.33429 C451.032606,307.969675 451.534955,296.068867 451.233663,285.423242 C451.198369,284.176189 450.225401,289.317618 448.672688,293.457676 C447.252347,297.244785 445.235393,300.066098 445.30768,299.031368 C445.760206,292.553802 448.672688,278.292683 448.120124,273.672884 C447.911634,271.92977 445.526693,283.473801 441.341267,291.850789 C440.538412,293.457676 437.725772,297.776184 437.725772,296.520803 C437.725772,295.591235 437.708817,292.461446 438.529216,288.687231 C440.595898,279.179524 443.701382,270.35868 443.499932,268.852224 C443.361113,267.814118 436.519121,282.649701 435.516303,285.824964 C434.913721,287.732946 436.164071,281.023826 436.872114,276.233859 C437.544695,271.683798 438.598745,264.847248 437.976848,265.839311 C436.465881,268.249641 434.511999,273.672884 432.850386,277.991392 C432.533338,278.815395 429.841396,282.209469 429.841396,281.205165 C429.841396,276.239019 431.663942,267.020952 436.068671,254.54089 C436.671253,252.833572 436.058848,246.487913 435.867221,247.460545 C435.164797,251.025825 431.097365,256.649928 427.527574,267.546628 C426.531066,270.588442 422.811267,273.622669 422.811267,272.467719 C422.811267,271.44534 425.824768,259.813486 425.824768,257.252511 C425.824768,255.687062 421.573004,264.554065 419.999215,265.136298 C419.061949,265.483046 420.802658,258.407461 422.209077,253.687231 C423.721092,248.612595 424.870679,240.430416 424.117451,242.639885 C423.903954,243.266141 422.05745,247.912482 419.999215,253.48637 C418.689331,257.033656 416.786619,259.160689 415.580866,260.215208 C414.947912,260.768772 415.592106,255.548143 416.334094,251.025825 C417.198698,245.756178 419.052869,241.216663 418.79405,240.631277 C418.57553,240.137036 416.986535,244.712468 414.626777,248.314204 C413.170179,250.537432 412.216447,251.829268 411.161338,252.833572 C410.679632,253.292085 410.679632,251.233261 411.161338,246.657102 C412.232597,240.530846 412.500411,236.429938 411.964782,234.354376 C411.704531,233.345904 409.15273,242.639885 407.546432,244.648494 C405.934276,246.664427 407.44659,226.219512 405.939546,227.424677 C404.614155,228.484576 403.37857,243.543759 402.022759,246.054519 C401.272918,247.443114 401.169101,233.098996 400.515714,232.797704 C399.443399,232.303235 400.063777,241.183644 397.101669,242.890961 C396.298406,243.353951 397.101669,239.626973 397.101669,236.61406 C397.101669,233.673564 396.776654,232.822655 395.695054,230.43759 C394.818261,228.504147 393.54664,227.18118 393.184883,227.977044 C392.542335,229.390649 393.637029,231.962808 393.385744,235.810617 C393.235308,238.114171 391.878699,241.133429 391.878699,239.928264 C391.878699,237.011147 390.271812,235.408895 387.66121,231.391679 C385.37907,227.879903 383.141645,221.185125 383.141645,222.553802 C383.141645,224.160689 383.308898,228.579627 383.643404,235.810617 C385.659621,236.554821 390.413328,240.43813 397.904524,247.460545 C407.546432,256.499087 412.805271,265.056476 414.877657,268.852224 C419.04493,276.484935 419.397025,277.338398 422.209077,280.552171 C427.012262,286.041526 431.547488,297.789097 435.867221,310.028694 C438.277551,316.858159 439.985457,328.105973 438.77578,332.675557 C438.277551,333.638669 437.273247,325.494586 436.465881,325.937893 C436.465881,326.741336 436.465881,329.553388 438.277551,339.998151 C438.277551,347.890961 437.273247,353.957979 436.465881,353.957979 C435.867221,342.308051 435.036107,340.194161 434.260334,339.998151 C433.25603,343.011063 433.75426,345.823115 432.850386,353.154535 C431.390995,359.484726 428.824333,367.189094 428.531878,365.507477 C429.037952,360.485956 431.745651,351.84894 430.644839,344.677188 C430.927283,339.063623 431.143069,336.181795 430.644839,333.428981 C429.841396,333.428981 429.037952,334.675339 427.527574,342.308051 C423.815571,352.309507 425.422458,353.154535 424.619014,352.752814 C423.815571,344.677188 425.422458,347.329571 426.225901,338.391264 C427.029344,329.452957 427.242817,324.421339 427.029344,320.071736 C426.957299,318.603761 425.834865,322.506757 425.422458,324.289421 C422.721522,335.964432 422.309507,336.843223 420.802658,347.890961 C419.196165,350.803051 418.79405,351.907786 417.388417,352.309507 C417.890569,347.890961 418.878859,345.502038 419.999215,338.952262 C421.49005,330.236615 419.999215,329.511803 421.606102,322.582496 C420.802658,323.185079 418.79405,326.398852 415.379416,330.716968 C413.471631,334.031172 412.768225,337.144515 411.161338,337.646667 C411.161338,334.031172 412.768225,331.419981 414.174251,327.302334 C415.580277,323.184687 415.881961,321.979522 417.388417,317.962697 C418.894873,313.945873 419.999215,311.133037 419.999215,307.718795 C419.036173,308.002042 417.589278,310.430416 415.379416,315.753228 C411.964782,320.97561 412.768225,319.770249 409.554845,325.494586 C406.977142,330.086522 413.17034,313.945481 411.964782,312.941176 C410.759617,314.414156 409.554583,316.791009 408.34968,320.071736 C405.325265,323.144575 404.053016,323.981495 404.532931,322.582496 C405.135906,320.824768 404.522989,320.401333 405.135906,316.556671 C407.412329,307.919656 409.086039,300.688666 410.157034,294.863702 C406.407633,304.438068 403.595581,309.626973 401.720879,310.430416 C401.613384,310.476486 404.532931,297.868002 404.532931,294.863702 C401.21912,298.278336 400.515714,302.395983 396.900219,307.718795 C395.695712,308.521799 396.197599,305.308465 397.904524,299.28264 C398.407068,293.256815 398.707967,290.444763 400.515714,287.030129 C397.302334,293.859397 396.29803,295.365854 392.883003,301.69297 C392.293828,302.78455 393.686446,295.566714 393.686446,293.457676 C393.686446,291.348637 395.695054,287.030129 394.590713,287.030129 C393.084445,288.655313 394.289617,289.440459 392.48187,291.147776 C390.287206,293.220514 393.586801,283.916786 395.193295,277.388809 C396.264292,273.036824 396.833266,269.890005 396.900219,267.94835 C394.891611,270.425633 393.552539,273.003348 392.883003,275.681492 C392.213467,278.359636 391.577538,280.703013 390.975218,282.711621 C391.715831,284.163958 392.016991,285.067832 391.878699,285.423242 C391.782523,285.670415 391.246894,285.369123 390.271812,284.519369 C390.205251,284.753576 389.987848,285.456589 389.619603,286.628407 C389.251359,287.800226 389.000282,286.34392 388.866375,282.259488 L387.460153,280.100234 L385.702817,281.857767 C387.802197,286.02131 388.990624,289.352318 389.268097,291.850789 C389.669622,295.466284 375.207249,267.144907 370.788311,267.144907 C371.932553,268.809257 374.557812,273.71118 377.718403,278.945285 C380.660745,283.817959 384.167687,289.720333 384.748532,291.850789 C385.953304,296.269727 387.460153,299.784988 387.460153,302.395983 C387.460153,303.559741 385.036894,298.019125 382.6391,294.311138 C379.657231,289.699927 376.546167,286.515925 376.211947,286.126255 C375.608971,285.423242 379.42572,292.854897 382.137341,299.031368 C383.465271,302.056097 384.421579,308.149011 383.844854,306.76451 C382.945859,304.606359 378.823921,295.315442 377.216447,293.005543 C375.608971,290.695643 370.989761,284.519369 371.993476,286.628407 C372.376183,287.432562 374.153123,293.005543 376.211947,297.876614 C378.27077,302.747685 379.927872,307.264864 379.927872,311.33429 C379.927872,311.937068 376.614256,305.860636 377.216447,307.718795 C377.481583,308.536917 378.516699,314.670075 378.01989,313.945481 C376.814725,312.187752 376.311903,312.272668 375.608971,310.028694 C372.99778,301.69297 366.671253,295.416069 368.077279,297.876614 C368.757578,299.067139 371.993476,305.70999 372.395591,313.945481 C372.644446,319.042164 371.548151,325.649598 371.391287,324.289421 C371.090191,321.678623 369.956132,314.231119 368.377981,308.622669 C366.799831,303.014218 362.403548,295.416069 363.005543,297.374462 C363.873759,300.198923 365.300094,307.720587 367.172816,317.962697 C368.880526,327.302334 367.1663,331.294295 366.369373,333.931133 C365.961135,335.281893 366.270119,323.938111 365.014151,325.494586 C364.234922,326.460255 363.182351,337.498816 362.753878,336.090191 C362.051258,333.780292 364.317146,317.093654 362.503391,318.615299 C361.285759,319.636827 360.920701,324.5537 359.540105,333.02726 C358.787465,337.646667 352.908945,345.390344 353.263792,343.773118 C353.476433,342.803999 356.02504,336.893635 356.527192,333.931133 C357.029344,330.968632 358.15487,324.617611 357.330635,325.494586 C355.902103,327.014528 353.743264,335.336938 349.798943,341.413003 C346.082822,347.137537 337.546432,353.615103 339.153123,350.602386 C340.103835,348.819699 346.183448,337.697078 347.790335,333.931133 C348.524751,332.209934 341.348689,341.256303 341.463023,339.998151 C341.649882,337.941903 348.976028,326.928793 348.392721,327.302334 C342.668188,330.96824 335.150229,339.443847 334.533324,338.391264 C333.479001,336.592343 344.907932,325.649518 345.681296,323.285313 C346.163116,321.812369 336.932837,331.849687 337.043691,330.466088 C337.446002,325.444763 348.315244,316.860976 346.384309,316.556671 C345.180917,316.367024 341.670904,319.597653 337.847135,322.582496 C333.127682,326.266513 328.058968,329.843336 327.804486,329.361353 C325.996935,325.937893 337.327415,318.672855 343.471238,314.347202 C348.392721,310.882157 356.025629,304.504825 356.527192,299.583735 C356.634075,298.535055 350.753228,302.395983 342.969675,309.325681 C339.577074,312.346115 335.387178,315.200665 332.575127,315.753228 C331.334988,315.996913 335.517806,309.895326 339.956566,305.70999 C343.471238,302.395983 348.748908,296.770332 346.986891,297.374462 C343.476115,298.578178 334.534108,309.727207 329.110277,309.727207 C327.753497,309.727207 330.582685,309.555098 335.085887,301.69297 C336.512792,299.20174 342.668188,292.754467 346.986891,289.841985 C348.91648,288.540693 353.515065,281.958393 352.108647,283.063128 C348.896176,285.586508 335.621267,294.813036 336.441502,293.005543 C339.153123,287.030129 350.652602,278.694209 353.263792,273.672884 C354.056103,272.149268 340.860636,281.586854 336.441502,285.121755 C334.931583,286.329551 342.969675,275.128929 345.43022,272.467719 C346.157842,271.680757 334.385134,282.41957 333.328355,281.857767 C332.401535,281.365051 338.550737,274.175036 341.463023,270.157623 C342.240158,269.085587 334.273775,276.390205 335.085887,274.727207 C338.249249,268.249445 346.833675,260.437154 348.794639,258.156188 C350.402026,256.286499 354.318116,247.259488 352.91209,249.117451 C350.959204,251.698049 346.384309,256.248011 345.028498,257.804682 C344.041308,258.938123 339.69476,261.452594 334.533324,265.839311 C333.639386,266.599071 334.835426,263.040185 339.956566,257.553606 C341.802325,255.576136 344.94299,252.392994 349.296595,246.657102 C351.822474,243.329247 355.272401,238.220751 353.715533,239.426112 C350.167037,242.173435 341.965371,249.720034 338.249249,252.029933 C336.707464,252.988289 342.757892,246.818813 344.024194,243.593778 C344.364779,242.726372 340.445631,245.720691 341.011282,244.899374 C342.512962,242.718953 342.874407,241.48592 344.676796,239.426112 C348.895004,234.605452 351.640102,231.458567 352.91209,229.985457 L352.410134,228.378766 C350.334572,230.62145 346.250401,235.542476 340.157623,243.141841 C334.064845,250.741207 329.177231,256.817247 325.494782,261.369962 C324.088757,265.085887 323.21836,267.579975 322.883592,268.852224 C322.765106,269.302513 322.965967,267.528242 323.486174,263.529412 C317.537356,271.157978 313.369494,276.681585 310.982587,280.100234 C302.415001,292.371166 297.372524,300.723851 295.365658,304.052889 C283.4864,323.75848 277.786999,335.516477 269.906547,353.154535 C254.691339,387.209273 248.88775,400.086364 229.282248,447.718795 C222.223474,464.868396 219.69075,474.935242 217.130364,481.011282 C215.788181,484.196407 221.912359,474.784289 227.273639,469.260923 C232.708531,463.661718 232.583712,463.846551 238.722903,459.468957 C241.421589,457.54464 246.401989,456.293443 244.146145,457.159058 C239.827638,458.81616 233.683522,465.737651 224.963936,476.090191 C220.767232,481.072829 217.151541,486.763886 214.116862,493.163362 C216.976244,490.649635 219.303078,488.490381 221.097365,486.6856 C229.784007,477.948154 233.174328,479.10701 232.446002,479.454806 C229.080994,481.061693 226.269531,484.676992 221.548713,490.401722 C219.053756,493.427247 216.342266,496.17228 213.414242,498.63682 C213.181891,502.968317 212.914142,506.215566 212.610995,508.37857 C212.307848,510.541573 211.604835,513.654982 210.501956,517.718795 C215.316323,513.385734 218.111636,511.008815 218.887896,510.588039 C224.260923,507.675557 231.392071,505.566322 229.031368,506.621038 C227.300432,507.394386 223.809378,509.784596 218.586605,513.852028 C215.104755,516.563649 212.409872,519.024194 210.501956,521.233663 C210.28513,522.907875 210.050793,524.179993 209.798943,525.050019 C209.547093,525.920045 209.044941,527.192164 208.292487,528.866375 C215.03618,524.307661 222.032767,520.591801 229.282248,517.718795 C242.84055,512.345572 255.8686,510.499709 253.485978,511.793204 C249.97111,513.701382 238.471827,519.074409 229.282248,522.790335 C221.535558,525.922809 214.103772,529.822857 206.986891,534.490478 L205.932372,537.403156 C211.623429,534.423459 216.678427,532.063279 221.097365,530.322616 C226.658396,528.132071 232.68552,529.820464 231.742989,529.820464 C228.730077,529.820464 226.287648,531.009096 221.097365,533.034237 C216.570711,534.800444 212.172083,537.164076 211.606691,538.106169 C211.192592,538.796168 219.99263,536.14758 218.586605,536.951023 C217.888925,537.349698 215.781046,538.350967 213.414242,540.114582 C212.462237,540.823964 210.922304,542.163102 208.794443,544.131994 C211.782965,542.522027 214.159818,541.300059 215.925002,540.466088 C218.572778,539.215132 218.92818,538.904894 221.850593,538.407265 C225.857683,537.724935 231.44209,538.708556 229.282248,538.708556 C227.573096,538.708556 224.078695,538.799413 219.590909,540.817594 C216.925056,542.016443 214.497791,543.857732 212.309115,546.341463 L176.675066,533.43051 C176.747995,533.339511 176.792157,533.20742 176.807551,533.034237 C175.970631,530.523477 174.824051,526.807551 173.36781,521.886461 C172.514151,522.991196 171.451262,523.945285 170.179144,524.748728 C171.350832,526.504607 172.271445,528.680599 172.94098,531.276705 C173.55866,531.846231 174.102453,532.310215 174.572358,532.668655 Z M385.468733,266.452269 L384.397221,266.793204 L384.397221,265.387178 L381.283879,261.721468 L380.781726,264.53352 C381.688808,265.554789 382.659635,266.776692 383.694209,268.19923 C384.802151,269.722651 385.873409,271.597352 386.907982,273.823333 L387.610995,268.651167 L386.182827,267.154991 L387.610995,268.450306 C388.420931,262.227033 388.688745,259.364766 388.414438,259.863506 C388.047493,260.530678 387.065591,262.726933 385.468733,266.452269 Z M390.740029,201.808532 C392.84039,200.713664 394.776814,199.744901 396.549302,198.902243 C387.008412,198.902243 381.032803,201.814725 377.91946,203.622473 C383.536066,202.649005 387.310759,202.200771 389.243538,202.277771 C386.507006,203.13427 383.870524,203.950748 381.334094,204.727207 C379.38404,205.324162 376.35591,205.078714 373.852028,205.078714 C373.19923,205.078714 372.094495,205.179144 372.094495,206.334094 C372.395787,207.388613 376.513434,206.334094 379.978283,207.94098 C382.857288,206.414981 386.757336,204.272465 391.678427,201.513434 C391.364365,201.612306 391.051565,201.710671 390.740029,201.808532 Z M131.405585,89.9906108 C128.298796,90.8967583 125.192006,93.3086976 121.04962,97.3216335 C118.76564,99.5342401 114.96549,102.28832 112.505948,104.618412 C111.217457,105.839089 118.418335,102.487912 123.768061,99.5698793 C125.192006,98.7931818 132.251954,89.7437537 131.405585,89.9906108 Z M155.817693,88.7553802 C155.414284,88.3663787 149.66633,88.454089 145.824866,89.6592539 C140.572268,91.3071283 136.51882,94.4302306 137.81554,94.3041607 C139.623288,94.1284075 145.598898,91.6074602 147.155569,91.1806309 C148.446573,90.8266459 156.520705,89.4332855 155.817693,88.7553802 Z M160.939644,92.6219512 C160.462599,93.0236729 160.03577,93.9526542 159.834909,95.0322812 C159.634048,96.1119082 158.127592,97.7941176 159.282542,97.6183644 C160.437492,97.4426112 161.065182,96.2374462 161.366473,95.4340029 C161.667764,94.6305595 161.91884,93.1492109 161.91884,92.9483501 C161.91884,92.7474892 161.416688,92.2202296 160.939644,92.6219512 Z M179.594594,101.359397 C179.745239,99.8529412 178.280298,98.5822538 176.104637,95.9863702 C174.250528,93.7741476 174.166016,93.5533469 171.535053,91.7431851 C169.659201,90.4525578 169.585148,90.1585988 167.141222,89.6090387 C164.839811,89.0915256 162.34567,89.4835007 162.044378,89.6090387 C161.338904,89.9029865 162.543239,90.419517 163.324866,91.0903874 C165.644028,93.080923 166.049285,92.8640592 168.748109,94.6556671 C170.864921,96.060908 172.072758,96.7852853 175.451839,98.8737446 C177.496,100.13715 179.531984,101.985489 179.594594,101.359397 Z M152.905112,86.1190818 C155.918025,87.9770445 151.248011,83.1061693 150.595213,81.7001435 C149.942415,80.2941176 149.741554,77.1807747 149.540693,75.9253945 C149.339833,74.6700143 147.080148,74.0674319 145.824768,73.615495 C144.569388,73.1635581 140.602386,73.4648494 140.25088,72.2596844 C139.899374,71.0545194 147.632516,68.6944046 148.787465,67.2883788 C149.942415,65.8823529 145.774553,66.2840746 141.656906,65.8823529 C137.539259,65.4806313 134.27527,66.6857963 136.233663,64.2754663 C138.192056,61.8651363 146.276705,60.5595409 147.38144,59.4548063 C148.486174,58.3500717 142.159058,60.5595409 137.539259,60.5595409 C132.91946,60.5595409 130.961067,61.1621234 129.906547,60.5595409 C128.852028,59.9569584 131.86494,57.2453372 134.17484,56.1406026 C136.484739,55.035868 137.380963,53.947854 138.9955,53.2281205 C141.223789,52.2347867 134.637779,52.3232675 129.555041,52.9770445 C125.130866,53.5461125 122.259921,54.6082807 122.072975,54.9354376 C121.671253,55.6384505 124.282444,55.5380201 127.194926,58.1994261 C130.107408,60.8608321 134.727207,66.8364419 135.43022,68.4433286 C136.133233,70.0502152 142.510564,78.0344333 143.665514,78.9885222 C144.820464,79.9426112 150.532146,84.655752 152.905112,86.1190818 Z M159.784596,82.0514539 C160.738685,82.0514539 160.487609,71.2049689 160.035672,66.9366762 C159.583735,62.6683835 158.227924,56.1906217 156.068671,55.0858871 C153.909417,53.9811525 156.804432,56.039976 157.625342,61.2121425 C158.446252,66.3843089 158.479001,73.0629316 158.730077,75.3226159 C158.981153,77.5823004 158.830507,82.0514539 159.784596,82.0514539 Z M158.880722,48.4576758 C158.37857,47.0516499 156.470392,44.6915352 156.068671,44.2898135 C155.666949,43.8880918 154.260923,41.3271162 153.55791,37.8120516 C152.854897,34.2969871 150.444567,35.0502152 152.252315,33.8450502 C154.060062,32.6398852 152.704252,34.5982783 154.060062,35.6025825 C155.823571,36.9088848 158.027064,39.1678623 158.027064,38.4146341 C158.027064,36.4351364 157.072975,33.6441894 155.566518,32.9913917 C154.562214,32.5561932 152.001239,33.6107126 147.883592,36.1549498 L149.540693,36.5064562 C150.210229,38.4815877 150.980196,40.0884744 151.850593,41.3271162 C153.156188,43.1850789 154.361353,45.2439024 155.566518,46.097561 C156.771683,46.9512195 159.382874,49.8637016 158.880722,48.4576758 Z M171.886461,43.4361549 C172.433904,43.6750393 173.304302,42.6205199 174.497652,40.2725968 C178.414438,32.338594 180.674122,27.8861788 181.276705,26.9153515 C182.180579,25.4591105 185.042846,20.7388809 185.293922,19.8852224 C185.461305,19.3161167 182.347962,19.8852224 175.953893,21.5925395 C174.41396,24.0363463 173.928546,25.5093257 174.497652,26.0114778 C175.35131,26.7647059 177.338446,24.2539455 178.141889,23.5509326 C178.945333,22.8479197 180.021325,21.5925395 180.573692,21.5925395 C181.126059,21.5925395 180.17197,24.7058824 179.418742,26.312769 C178.665514,27.9196557 177.76164,30.5308465 175.702817,33.5939742 C173.643993,36.6571019 173.392917,38.1133429 172.137537,39.7704448 C170.882157,41.4275466 171.326708,43.191899 171.886461,43.4361549 Z M160.989761,88.830703 C162.562893,88.3132253 162.897939,87.8766141 168.01989,87.8766141 C173.141841,87.8766141 182.632516,88.830703 188.306834,89.3830703 C193.981153,89.9354376 214.368527,93.651363 217.682731,94.6054519 C220.996935,95.5595409 235.358484,101.484935 237.618168,102.58967 C239.877853,103.694405 245.602386,106.556671 247.108843,107.3099 C248.615299,108.063128 255.745858,111.929699 257.905112,113.687231 C260.064366,115.444763 264.53352,117.955524 265.7889,118.809182 C267.04428,119.662841 274.074409,123.780488 276.183448,125.43759 C278.292487,127.094692 281.807551,130.35868 282.711425,131.061693 C283.615299,131.764706 285.071148,133.622669 287.130167,135.07891 C289.189187,136.535151 290.996738,137.890961 291.950827,138.644189 C292.904916,139.397418 296.721468,144.017217 296.018455,142.761836 C295.315442,141.506456 296.219316,144.167862 298.579431,144.167862 C300.152841,144.167862 302.479479,144.536107 305.559345,145.272597 C304.990239,141.25538 304.705686,137.673362 304.705686,134.526542 C304.705686,129.806313 304.705686,120.767575 303.902243,121.822095 C303.0988,122.876614 302.345572,125.889527 301.742989,129.20373 C301.140407,132.517934 299.282444,142.058824 298.579431,138.644189 C297.876418,135.229555 295.817594,132.015782 296.018455,127.84792 C296.219316,123.680057 294.913721,112.733142 295.164797,109.82066 C295.415873,106.908178 295.616734,99.0243902 294.110277,99.0243902 C292.603821,99.0243902 291.900808,101.836442 291.248011,106.757532 C290.595213,111.678623 291.04715,124.935438 291.04715,128.550933 C291.04715,132.166428 288.486174,137.037303 288.486174,135.581062 C288.486174,134.124821 289.339833,130.007174 288.486174,125.939742 C287.632516,121.87231 286.176275,117.101865 283.715729,111.07604 C281.255184,105.050215 280.501956,99.2252511 280.15045,96.9655667 C279.798943,94.7058824 279.09593,96.061693 279.09593,96.6642755 C279.09593,97.266858 280.15045,103.192253 281.154754,108.263989 C282.159058,113.335725 282.711425,117.604017 282.711425,120.71736 C282.711425,123.830703 282.159058,127.496413 281.807551,126.341463 C281.456045,125.186514 280.15045,121.87231 279.09593,117.553802 C278.041411,113.235294 277.288183,111.879484 276.635385,111.628407 C275.982587,111.377331 275.932372,115.545194 275.681296,116.750359 C275.43022,117.955524 275.982587,121.219512 274.526346,119.56241 C273.070105,117.905308 273.722903,116.549498 272.467523,114.992826 C271.212143,113.436155 271.86494,112.338203 270.760206,114.239598 C269.655471,116.140994 270.910851,118.005739 269.35418,116.750359 C267.797508,115.494978 266.441698,110.272597 265.487609,107.109039 C264.53352,103.945481 262.474696,94.6054519 262.22362,89.784792 C261.972544,84.964132 259.009847,75.4232425 257.453176,72.6111908 C257.0444,71.8727588 258.005543,76.0760402 258.357049,78.3357245 C258.708556,80.5954089 260.265227,85.3156385 260.265227,90.4878049 C260.265227,95.6599713 260.516303,99.5767575 261.269531,102.037303 C262.022759,104.497848 263.629646,109.82066 263.629646,112.532281 C263.629646,115.243902 263.981153,114.942611 263.981153,116.341854 C263.981153,116.973054 259.060062,105.602582 257.051454,103.945481 C255.042846,102.288379 253.385744,96.0114778 251.678427,95.4591105 C249.97111,94.9067432 250.674122,96.2625538 251.126059,97.6183644 C251.577996,98.974175 255.093061,111.226686 254.440263,107.812052 C253.787465,104.397418 255.093061,111.829268 253.73725,110.336632 C252.781242,109.284145 251.929503,108.263989 251.126059,106.506456 C250.322616,104.748924 250.17197,103.593974 249.067236,102.58967 C247.962501,101.585366 248.715729,105.703013 248.715729,106.506456 C248.715729,107.3099 246.757336,104.196557 246.004108,103.091822 C244.95847,101.55822 244.347006,97.1664275 243.443133,94.3041607 C242.539259,91.4418938 239.526346,87.8766141 238.923764,87.1233859 C238.321181,86.3701578 237.969675,87.2238164 238.722903,88.2281205 C239.476131,89.2324247 241.58517,92.2453372 242.087322,94.6054519 C242.589474,96.9655667 242.502383,99.9707959 242.689904,101.133429 C243.192056,104.246772 235.810421,97.0659971 237.316877,98.5222382 C238.823333,99.9784792 235.157623,96.8651363 233.600952,92.2955524 C232.04428,87.7259684 229.031368,86.7216643 228.780292,87.1233859 C228.529216,87.5251076 229.985457,89.8350072 229.784596,91.5925395 C229.583735,93.3500717 228.780292,96.4415417 228.780292,95.4591105 C228.780292,93.8020086 228.177709,89.6843615 227.22362,91.3916786 C226.269531,93.0989957 227.976848,94.9067432 227.22362,94.6054519 C226.470392,94.3041607 218.285313,88.3787661 216.22649,85.4160689 C214.308348,82.6558168 213.113147,80.7460545 212.510564,78.7876614 C211.856607,76.6623007 212.008412,80.8464849 212.259488,82.0516499 C212.510564,83.2568149 212.711425,85.215208 213.364223,86.7216643 C213.93874,88.0474743 215.121755,91.1406026 215.774553,92.2955524 C216.427351,93.4505022 211.556475,89.8350072 210.702817,88.830703 C209.663427,87.6078912 207.689904,84.6628407 206.233663,82.4031564 C204.777422,80.143472 200.70999,75.7747489 200.70999,77.1807747 C200.70999,78.5868006 201.413003,79.0387374 202.216447,81.7001435 C203.01989,84.3615495 205.32979,90.7388809 205.32979,91.5925395 C205.32979,92.446198 202.216447,89.9354376 200.308269,87.8766141 C198.400091,85.8177905 196.592343,82.9053085 195.387178,81.7001435 C194.182013,80.4949785 193.428785,79.0889527 193.428785,80.6958393 C193.428785,82.302726 194.483305,84.1606887 194.131798,86.7216643 C193.917246,88.2848292 191.922329,87.8263989 190.918025,87.1233859 C189.913721,86.420373 185.668838,82.4265149 185.996935,83.4576758 C186.348441,84.5624103 189.060062,87.1736011 187.40296,86.7216643 C185.947946,86.324842 186.699947,86.3701578 184.390048,85.8680057 C182.080148,85.3658537 174.949589,84.0602582 172.338398,84.0602582 C169.727207,84.0602582 166.563649,85.3156385 164.806117,86.2195122 C163.048584,87.1233859 157.173405,90.0860832 160.989761,88.830703 Z M205.480631,163.098996 C202.977993,162.068498 202.710179,162.804988 204.677188,165.308465 C206.75275,168.656146 208.560497,172.07078 210.10043,175.552367 C211.640364,179.033955 212.477283,182.950741 212.611191,187.302726 C215.758011,185.561932 218.168341,184.356767 219.842181,183.687231 C222.352941,182.682927 227.274032,181.07604 227.274032,179.870875 C227.274032,178.66571 214.017217,183.084648 215.322812,181.678623 C216.628407,180.272597 219.340029,179.368723 222.15208,178.263989 C224.026781,177.527499 228.077475,176.623625 234.304161,175.552367 L234.906743,173.142037 C229.215687,172.405286 227.106648,172.036911 228.579627,172.036911 C230.052606,172.036911 232.161645,171.83618 234.906743,171.43472 C235.643233,166.747968 236.145385,163.333334 236.413199,161.190818 C236.681014,159.048302 237.551411,155.667145 239.02439,151.047346 L236.413199,151.649928 C234.873266,158.010522 233.500717,162.295552 232.295552,164.505022 C230.487805,167.819225 228.579627,169.52615 229.182209,167.01539 C229.537052,165.53688 229.182209,161.190818 229.985261,158.277944 C230.788311,155.365069 232.295552,147.431851 232.898135,146.025825 C233.299857,145.088474 233.969392,141.406026 234.906743,134.978479 L232.898135,134.978479 C230.956219,143.079866 229.717577,148.101387 229.182209,150.043042 C228.531539,152.402872 224.462372,157.073171 225.064562,155.164993 C225.666753,153.256815 225.867614,148.235294 226.369766,144.92109 C226.871918,141.606887 227.274032,134.275466 227.274032,130.961263 C227.274032,127.647059 227.876614,123.830703 228.579627,121.018651 C229.28264,118.2066 229.985261,116.197991 229.182209,113.687231 C228.379158,111.176471 227.274032,119.713056 227.274032,119.010043 C227.274032,118.30703 225.064562,134.074605 225.064562,137.087518 C225.064562,140.10043 221.348637,151.649928 221.348637,148.737446 C221.348637,145.824964 220.946523,140.602582 220.946523,134.978479 C220.946523,129.354376 222.955524,121.621234 222.15208,119.010043 C221.348637,116.398852 219.199133,123.228121 218.094398,127.446198 C216.989664,131.664275 217.531496,138.694405 216.828876,141.305595 C216.126255,143.916786 215.824964,146.929699 215.322812,146.025825 C214.82066,145.121951 213.414634,141.305595 213.414634,138.091822 C213.414634,134.878049 212.611191,124.835007 212.611191,123.428981 C212.611191,122.022956 209.59867,126.441894 208.895265,129.956958 C208.19186,133.472023 208.895265,137.087518 207.58967,135.581062 C206.284075,134.074605 205.882353,133.873745 205.480631,132.367288 C205.07891,130.860832 205.480631,126.843615 205.882353,124.332855 C206.284075,121.822095 206.284075,117.202296 205.480631,114.992826 C204.677188,112.783357 204.677188,112.080344 204.074605,116.197991 C203.472023,120.315638 202.165643,125.236729 201.362592,127.044476 C200.827225,128.249641 200.157819,129.421329 199.354376,130.559541 C201.228554,133.572453 202.366634,135.748445 202.768618,137.087518 C203.371593,139.096126 207.488848,147.733142 206.584974,146.527977 C205.6811,145.322812 205.480631,144.218077 203.371593,141.305595 C201.262554,138.393113 196.742793,133.271162 197.747489,135.581062 C198.752185,137.890961 204.376289,148.436155 205.480631,150.043042 C206.584974,151.649928 211.004696,155.366246 213.916786,161.190818 C216.828876,167.01539 219.138776,175.552367 217.934003,174.548063 C216.690984,173.511877 215.050621,171.971944 213.012912,169.928264 C209.129603,165.844094 206.618843,163.567671 205.480631,163.098996 Z M136.735815,136.032803 C136.735815,136.507355 137.109226,136.118317 137.637591,135.14651 C138.105207,134.286434 139.043257,131.502065 140.451741,126.7934 C141.174079,122.940677 141.174079,121.501109 140.451741,122.474696 C139.296791,124.031368 139.141428,124.936169 138.192056,128.400091 C137.242685,131.864013 136.735815,134.670134 136.735815,136.032803 Z M159.031368,122.725968 C156.879881,123.457474 152.40296,127.446198 146.276705,133.873745 C145.305878,136.518413 144.452219,138.962219 143.715729,141.205165 L153.55791,131.488522 C158.880722,125.077714 160.705208,122.156863 159.031368,122.725968 Z M153.658341,111.226686 L151.248011,119.562466 C153.719096,118.661959 155.058169,117.875236 155.265227,117.202296 C155.533041,116.331899 154.997413,114.340029 153.658341,111.226686 Z M157.22362,111.578192 C157.424481,112.348159 157.424481,113.653754 157.22362,115.494978 C158.89746,114.119182 159.918503,112.947493 160.286748,111.979914 C159.885026,111.578192 159.182013,111.07604 157.22362,111.578192 Z M193.328355,111.728838 L196.592343,114.490674 C196.723683,109.822629 196.405654,107.127747 195.638254,106.406026 C194.999628,105.805413 194.229662,107.579684 193.328355,111.728838 Z M192.173405,116.348637 C192.173405,117.453372 192.173405,118.440938 192.173405,119.311334 C193.529216,120.081301 194.885026,121.788618 196.240837,124.433286 L196.240837,118.30703 L192.173405,116.348637 Z M185.544998,101.585366 C185.544998,102.218376 185.544998,103.574187 185.544998,105.652798 L188.055758,107.862267 C188.037853,106.573133 187.820253,105.45166 187.40296,104.497848 C186.798627,103.116514 185.544998,100.27977 185.544998,101.585366 Z M336.793204,204.02439 L342.819029,204.02439 C340.341746,201.61406 338.801813,200.274988 338.19923,200.007174 C337.295356,199.605452 332.474696,199.053085 335.68847,198.04878 C338.902243,197.044476 340.659775,195.989957 341.613864,195.53802 C342.567953,195.086083 331.922329,195.989957 330.616734,194.835007 C329.311138,193.680057 333.27814,194.106887 335.68847,193.077475 C338.0988,192.048063 335.638254,191.420373 333.579431,191.420373 C331.520607,191.420373 329.461784,190.516499 327.151884,190.516499 C324.841985,190.516499 330.616734,188.608321 332.072975,188.156385 C333.529216,187.704448 335.562932,187.453372 336.140407,187.101865 C336.717881,186.750359 335.387178,184.942611 331.520607,185.494978 C327.654036,186.047346 321.477566,186.047346 321.126059,185.79627 C320.891721,185.628886 323.670297,184.155906 329.461784,181.377331 L327.654036,180.423242 C325.228325,180.504743 323.487531,180.605173 322.431655,180.724534 C318.545031,181.163891 316.104539,181.377331 316.104539,181.377331 C316.104539,181.377331 322.958914,188.256815 326.549302,192.048063 C328.942894,194.575562 332.357528,198.567671 336.793204,204.02439 Z M235.408699,129.253945 C235.408699,128.472961 234.621994,130.113324 233.048584,134.175036 L235.057193,134.175036 C235.291531,131.362984 235.408699,129.72262 235.408699,129.253945 Z M238.522042,145.172166 L236.563649,151.097561 L239.17484,150.494978 L240.480435,144.82066 L238.522042,145.172166 Z M239.024194,143.213773 L241.083018,142.611191 L242.489044,138.041607 C241.759652,138.142842 241.182177,138.511087 240.756619,139.146341 C240.027227,140.235143 239.449752,141.590954 239.024194,143.213773 Z M244.748728,157.876418 C244.41396,159.784596 243.744424,161.876897 242.74012,164.153319 C241.735815,166.429742 240.681296,168.672688 239.576561,170.882157 C243.024673,170.94911 246.071061,171.216925 248.715729,171.6856 C248.983544,167.902721 249.55265,163.29966 250.423046,157.876418 L244.748728,157.876418 Z M245.301095,155.616734 L250.623907,154.511999 L250.925199,150.544998 L246.305399,150.544998 L245.301095,155.616734 Z M247.460545,146.979914 L251.276901,146.979914 C250.891639,144.870875 250.607086,143.816356 250.423242,143.816356 C249.696051,143.816356 248.708486,144.870875 247.460545,146.979914 Z M238.672688,173.443133 L237.969675,176.757336 L240.882157,175.803247 L240.882157,173.895069 L238.672688,173.443133 Z M237.467523,180.372831 L236.413003,184.942415 C238.382755,184.219355 240.073333,183.215051 241.484739,181.929503 C243.309524,180.267437 244.37491,179.339168 243.543563,179.017021 C242.758722,178.712895 240.733375,179.164832 237.467523,180.372831 Z M251.879287,172.137733 C253.586605,172.372071 255.277183,172.757054 256.951023,173.292683 L257.30253,171.183644 C254.515551,170.309746 253.176478,169.740641 253.285313,169.476327 C253.410816,169.171534 254.883795,169.171534 257.704252,169.476327 L258.45748,163.902439 C256.307654,164.333165 255.269874,164.333165 255.344137,163.902439 C255.437258,163.362338 256.642422,162.391511 258.959632,160.989957 L259.361353,157.876614 L256.951023,157.876614 C255.770104,162.017224 254.849491,164.979922 254.189187,166.764706 C253.19873,169.441882 252.783161,170.480631 251.879287,172.137733 Z M257.854897,153.859397 L259.963936,153.507891 L259.963936,150.344333 L258.507695,150.344333 L257.854897,153.859397 Z M259.060062,146.829268 L260.365658,146.829268 C260.332181,145.088474 260.114582,144.218077 259.71286,144.218077 C259.458414,144.218077 259.240815,145.088474 259.060062,146.829268 Z M261.721468,170.832138 C262.85968,171.233859 263.997891,171.602104 265.136102,171.936872 C265.136102,169.426112 265.588039,166.362984 266.491913,162.747489 C265.588039,162.981827 264.550258,163.232903 263.37857,163.500717 C263.077279,166.061693 262.524912,168.5055 261.721468,170.832138 Z M264.382874,159.031564 L268.952458,156.319943 C267.103926,156.155056 265.815069,156.288963 265.085887,156.721664 C264.617212,157.334976 264.382874,158.104942 264.382874,159.031564 Z M260.265227,174.648494 L264.734381,177.008608 L264.734381,174.648494 L260.918025,172.941176 L260.265227,174.648494 Z M263.830507,179.067432 C263.428785,179.30177 261.939067,180.021521 259.361353,181.226686 L259.009847,183.536585 C260.132486,182.785094 260.986144,182.232727 261.570823,181.879484 C262.155501,181.52624 262.908729,181.10778 263.830507,180.624103 C264.232229,179.351985 264.232229,178.833094 263.830507,179.067432 Z M258.608125,186.649928 L258.608125,189.060258 C260.285084,187.611872 261.506987,186.540615 262.273836,185.846485 C263.040684,185.152355 263.760435,184.499557 264.433089,183.888092 L264.433089,182.632712 C263.05563,183.381253 262.084803,183.967097 261.520607,184.390244 C260.956412,184.813391 259.985584,185.566619 258.608125,186.649928 Z M284.318312,204.626973 C282.66121,205.279574 281.656906,206.133037 279.347006,209.296791 C281.079431,208.861723 282.736533,208.510217 284.318312,208.242272 C284.619603,207.338398 284.619603,206.133298 284.318312,204.626973 Z M273.471827,166.613864 L276.735815,165.358484 L276.735815,161.291052 L273.823333,161.592343 L273.471827,166.613864 Z M273.522042,168.773118 L273.220751,171.735815 L276.786031,170.631081 L276.786031,168.220751 L273.522042,168.773118 Z M273.29486,172.94098 L273.29486,174.798943 L273.29486,175.149629 L276.735815,175.602386 L276.735815,171.886461 L273.29486,172.94098 Z M283.062932,173.9955 L281.707121,177.66121 L285.824768,176.556475 L286.126059,173.593778 L283.062932,173.9955 Z M285.17197,170.179144 L283.615299,172.589474 L286.176275,172.237968 L285.17197,170.179144 Z M303.575844,146.628211 C300.411612,148.6433 299.097648,149.697819 299.63395,149.79177 C300.244228,149.89868 302.704773,149.045021 307.015586,147.230794 L303.575844,146.628211 Z M307.618168,145.674122 L314.497652,147.5823 C313.470564,146.050163 312.56669,143.974601 311.786031,141.355615 C310.615042,137.427135 310.50745,137.226915 309.827638,131.915155 C309.147824,126.603396 310.124961,118.206404 309.425916,118.206404 C306.965371,118.206404 307.116016,125.814008 307.618168,134.27527 C307.952937,139.916112 307.952937,143.715729 307.618168,145.674122 Z M317.912286,132.116016 C317.912286,133.823333 318.61264,136.970153 320.01335,141.556475 C320.353434,143.196839 321.025629,144.753511 322.029933,146.22649 C322.395935,146.763293 322.292947,143.388886 321.025629,139.046003 C319.75831,134.703119 317.912286,130.381204 317.912286,132.116016 Z M326.298226,123.12769 C325.702916,123.322077 331.199166,126.812125 336.190622,132.417504 C341.182078,138.022882 345.078714,144.942014 345.078714,144.218077 C345.078714,142.09961 340.358484,134.325681 337.897939,131.764706 C335.437394,129.20373 328.758771,122.324247 326.298226,123.12769 Z M332.524912,135.430416 C331.435864,134.419158 333.328355,138.794835 333.328355,140.753228 C339.762746,146.176471 346.567034,154.266505 346.384309,153.055954 C346.165312,151.605099 337.446002,140 332.524912,135.430416 Z M334.885026,147.783161 C333.584393,146.872231 335.286748,150.293922 335.638254,152.603821 C340.910851,155.717164 349.196361,163.349876 348.694209,162.144711 C348.178517,160.907051 340.288123,151.567353 334.885026,147.783161 Z M359.79177,169.375701 L360.394352,175.853462 C362.336007,176.92472 363.842463,177.711425 364.913721,178.213577 C363.507695,174.028977 361.800378,171.083018 359.79177,169.375701 Z M330.918025,179.268097 L332.273836,180.573692 L335.588039,179.268097 L330.918025,179.268097 Z M311.735815,176.305399 L314.798943,179.569388 C319.519173,176.723859 321.310182,175.301095 320.17197,175.301095 C318.951652,175.301095 316.1396,175.635864 311.735815,176.305399 Z M306.965371,169.978283 L309.225055,172.74012 C315.619125,169.191578 320.49,166.680818 323.837681,165.207838 C324.95484,164.716288 321.232679,164.765958 319.669818,165.207838 C315.087622,166.5034 310.852806,168.093548 306.965371,169.978283 Z M303.852028,163.550737 L305.559345,167.417308 C310.547389,164.839594 314.949589,162.077757 318.765945,159.131798 C319.405164,158.638366 314.433858,160.111345 303.852028,163.550737 Z M318.866375,194.834811 L318.866375,199.002673 C325.550992,203.448124 331.292264,207.381649 336.090191,210.803247 C343.287082,215.935645 347.991196,219.239402 350.200665,221.348441 C351.212897,222.314662 350.401526,218.787465 343.371396,212.309704 C335.571301,206.250401 327.40296,200.425437 318.866375,194.834811 Z M309.676992,232.646863 C307.780261,233.655396 306.022729,234.860561 304.404395,236.262358 C302.78606,237.664154 302.317385,238.484336 302.998369,238.722903 L310.028498,237.015586 L309.676992,232.646863 Z M293.005543,227.22362 L293.005543,231.742989 C295.181535,227.033262 296.269531,224.254687 296.269531,223.407265 C296.269531,222.74823 295.181535,224.02035 293.005543,227.22362 Z M339.404395,207.087322 C341.078235,208.426394 342.517738,209.865896 343.722903,211.40583 L346.434524,209.798943 C344.325485,208.292487 341.982109,207.388613 339.404395,207.087322 Z M349.397221,213.665514 L344.727207,212.711425 L347.790335,215.874983 L349.397221,213.665514 Z M352.962501,218.938111 L349.598082,218.335528 L350.803247,221.599517 L352.962501,222.40296 L352.962501,218.938111 Z M377.567953,221.549302 C376.797987,221.214533 376.797987,224.830028 377.567953,232.395787 C378.204013,232.46274 379.777422,233.249445 382.288183,234.755902 C381.384309,230.939546 377.624692,221.573971 377.567953,221.549302 Z M371.592343,223.959632 C370.957806,223.716491 370.957806,225.624669 371.592343,229.684166 C373.634429,230.68847 375.140885,231.391483 376.111712,231.793204 C377.238517,232.259469 373.327051,224.624333 371.592343,223.959632 Z M356.678427,225.064366 C361.298226,225.566412 365.265227,226.704623 368.579431,228.479001 C367.374266,226.601847 365.382396,224.777361 362.603821,223.005543 C359.809538,222.247771 360.846289,222.905112 356.678427,225.064366 Z M437.374266,226.972544 C439.248967,228.612908 440.68847,229.767858 441.692774,230.437394 C436.922329,221.14758 431.398656,212.008412 427.984022,209.698513 C426.957528,209.00412 435.311577,221.343748 436.269531,223.105973 C436.908168,224.28079 437.276412,225.569647 437.374266,226.972544 Z M412.116016,205.32979 C412.116016,206.334094 419.698513,211.656906 422.510564,219.138972 C424.468957,219.79177 424.217881,219.79177 426.778857,221.549302 C422.510564,214.418742 416.986891,205.028498 412.116016,205.32979 Z M406.592343,203.773118 C405.22836,203.59712 411.965371,211.456045 414.676992,217.080148 C416.334094,217.080148 420.602386,218.63682 420.301095,218.285313 C416.507942,213.859968 408.341703,203.998842 406.592343,203.773118 Z M404.63395,193.830507 C395.394352,193.127494 389.770249,193.579431 387.76164,195.186318 C385.803247,196.642559 395.243706,195.7889 398.959632,197.295356 C401.135624,195.91503 403.027064,194.76008 404.63395,193.830507 Z M390.021521,280.803247 C391.561323,274.393117 392.331224,270.677192 392.331224,269.655471 C392.331224,268.61769 391.092648,270.877374 388.615495,276.434524 L390.021521,280.803247 Z M385.702817,281.305399 L386.104539,277.991392 C385.036397,275.695478 384.199476,274.172218 383.593778,273.421612 C380.320319,269.365004 378.168471,268.154444 378.371396,268.400091 C378.810282,268.931373 380.328784,270.943262 382.489044,274.837599 C383.136056,276.003979 384.207313,278.159912 385.702817,281.305399 Z M379.526346,263.177709 L379.526346,260.215012 L376.76451,257.252315 L376.011282,259.411569 L379.526346,263.177709 Z M372.295356,254.841985 C372.295356,255.253038 373.366614,256.709279 375.50913,259.210708 L376.563649,257.126777 C373.71812,255.10143 372.295356,254.339833 372.295356,254.841985 Z M381.735815,260.516303 L384.648298,264.985457 L384.999804,259.71286 C384.580436,259.002406 384.245669,258.533731 383.9955,258.306834 C383.745331,258.079937 383.360347,257.895814 382.84055,257.754467 L381.735815,260.516303 Z M377.567953,255.946719 L379.928068,258.156188 L379.928068,254.691339 L378.748011,253.385744 L377.567953,255.946719 Z M376.814725,251.577996 C374.404395,250.506739 373.333138,250.17197 373.600952,250.573692 C373.843772,250.937923 374.814599,252.025919 376.513434,253.837681 L376.814725,251.577996 Z M313.141841,266.240837 L319.418742,258.357049 C319.527466,255.445053 319.761804,252.833862 320.121755,250.523477 C320.661455,247.059357 321.286681,247.569328 321.577996,244.397221 C321.738617,242.648238 321.595447,239.263081 321.025629,240.681296 C319.628213,244.159309 319.055751,247.996473 317.66121,252.5823 C316.83916,255.285541 315.332703,259.838387 313.141841,266.240837 Z M320.523477,257.051454 L324.942415,251.377135 C325.450842,246.065351 325.450842,243.2533 324.942415,242.94098 C324.279153,242.533549 323.392019,244.50868 322.281009,248.866375 L320.523477,257.051454 Z M328.306834,247.460349 L331.219316,244.292665 C331.255587,241.896069 331.104941,240.859664 330.767379,241.183448 C329.127016,242.756858 328.306834,244.849158 328.306834,247.460349 Z M334.332659,241.233663 C335.939546,239.358963 337.328833,237.618168 338.500521,236.011282 C338.980791,235.352626 338.394946,234.398537 336.742989,233.149015 C335.094821,235.091859 333.990086,237.100467 333.428785,239.17484 C333.220119,239.945996 333.52141,240.632271 334.332659,241.233663 Z M314.347006,236.011282 C320.17197,234.404395 324.925677,233.0988 328.608125,232.094495 C329.260923,229.182013 330.516303,224.963936 329.361353,226.018455 C328.619376,226.695913 325.243706,230.186318 323.73725,231.793204 C323.15511,232.414154 325.688913,227.185629 324.490478,227.625342 C322.198956,228.466116 316.054323,235.408699 316.857767,233.751597 C317.243743,232.955521 319.569388,228.328355 318.314008,228.930937 C317.810359,229.172689 316.005897,230.421363 315.501956,231.793204 C314.899374,233.433568 314.51439,234.839594 314.347006,236.011282 Z M358.335528,220.444567 C360.308244,219.801754 362.065776,218.964834 363.608125,217.933807 C365.150475,216.90278 366.472808,215.680876 367.575127,214.268097 C365.92538,214.852026 364.385446,215.621993 362.955328,216.577996 C361.525209,217.533999 359.985276,218.822856 358.335528,220.444567 Z M204.978283,542.173405 L207.193427,542.876418 C208.260902,542.072975 208.9955,541.185839 209.397221,540.215012 C209.554282,539.835449 208.081303,540.488247 204.978283,542.173405 Z M156.470392,522.137537 C157.106452,522.606212 157.926633,523.192056 158.930937,523.895069 C160.169579,523.192056 161.324529,522.606212 162.395787,522.137537 C161.860158,521.417786 161.20736,520.112191 160.437394,518.220751 C158.930937,519.861115 157.608604,521.16671 156.470392,522.137537 Z" id="Palm-trees" fill="#121212" fill-rule="nonzero"></path>
            <path d="M328.221647,488.13312 C324.798224,488.308003 322.136342,488.392721 320.975218,488.392721 C319.06704,488.392721 317.158862,484.415897 315.150254,477.84792 C314.811867,476.741426 314.045519,483.471631 317.158862,488.392721 C317.562044,489.03001 312.639493,489.020766 308.521846,488.593582 C307.420903,488.479365 305.508934,484.877657 305.508934,479.454414 C305.508934,474.031172 302.596452,483.170732 304.404199,487.589278 C304.776904,488.500255 292.955132,487.589278 287.63232,484.576365 C283.313812,481.663883 281.807747,480.458718 277.991392,479.454414 C275.42918,478.780148 269.07797,479.02293 270.458718,479.454414 C273.672492,480.458718 276.54365,481.100835 280.200469,483.170732 C285.523281,486.183644 288.405939,487.776796 291.247815,488.392721 C297.273639,489.698709 317.560584,490.803443 327.201903,489.89957 C345.086697,488.22287 362.680894,486.183644 356.427155,486.183644 C352.35978,486.183644 344.267388,487.0302 336.843223,487.589278 C334.137822,487.793008 331.5219,487.956657 329.200535,488.081736 C329.757552,487.636948 330.408844,486.755175 330.74237,485.480631 C333.187324,484.912037 344.831461,482.895245 352.661308,481.187231 C361.524292,479.253847 363.633331,477.94835 365.089572,478.149211 C366.545813,478.350072 371.149969,478.863598 373.560299,479.164889 C373.94971,479.213566 361.052559,484.38856 361.047248,484.400906 C360.118266,486.560062 374.683351,479.897177 374.906207,479.783527 C375.693752,479.381903 377.171902,479.505022 377.216545,479.505022 C379.174938,479.505022 360.419852,485.781726 367.72587,484.400906 C375.031889,483.020086 401.770477,471.576293 415.379416,463.837877 C420.501367,460.925395 430.042257,453.342898 438.277944,443.601148 C439.151213,443.059363 441.326315,443.070254 442.897743,441.893831 C468.894465,422.431804 494.541246,401.506859 493.414242,402.324247 C484.275074,408.952654 448.220555,436.168905 441.592147,440.487413 C438.057619,442.790212 430.805646,440.387374 427.230598,439.684362 C426.05307,439.452808 430.604785,442.898135 434.562018,442.898135 C438.177513,442.898135 421.656317,458.113343 413.722314,462.833572 C408.457227,465.965966 392.01625,473.593498 390.308933,474.421656 C390.308933,472.262403 390.384452,466.085932 389.380148,462.621083 C388.60178,459.935715 389.454588,474.547194 388.651832,475.074454 C387.849074,475.601714 381.157133,478.170301 380.555856,478.149211 C371.968957,477.848018 363.382255,476.467001 357.381538,475.462697 C356.954708,475.462697 357.068643,473.516398 356.779053,473.805987 C356.388593,474.196448 354.946002,476.517217 356.979816,476.818508 C357.037399,476.827038 359.259678,477.210417 361.047248,477.496413 C354.243087,479.781205 335.839213,482.89445 331.118984,483.597463 C331.470392,480.936155 331.671351,479.404591 330.74237,477.998467 C329.62382,476.305408 327.679046,475.136298 325.846289,475.136298 C323.963317,475.136298 319.820464,476.517217 319.820464,483.873745 C319.820464,485.232471 321.563264,476.818508 325.846289,476.818508 C327.854897,476.818508 329.718457,478.475877 329.788281,480.233142 C329.822618,481.097318 329.847628,481.940557 329.511999,483.597463 C329.17637,485.254369 328.708556,486.233859 328.256619,487.890961 C328.231161,487.984308 328.220083,488.064965 328.221647,488.13312 Z M256.700143,469.210904 C260.415677,468.608321 261.905051,468.585045 264.131602,469.813486 C266.358153,471.041928 266.943654,472.223816 268.148819,475.035868 C282.951837,477.37511 289.339637,477.245337 305.006782,476.542324 C305.408503,473.730273 307.484065,472.324247 311.233467,472.324247 C312.639493,472.324247 313.576843,473.529412 314.045519,475.939742 C324.356375,474.935438 338.651069,472.935199 356.929601,469.939024 L356.929601,453.880161 C356.929601,453.880161 367.366886,454.860058 388.241454,456.819849 C388.503892,459.492541 388.63511,460.828887 388.63511,460.828887 C389.91178,459.635367 390.959761,458.613016 391.779053,457.761836 C394.407628,452.69137 397.466836,446.690259 399.763271,443.651363 C403.312399,438.679665 413.974567,440.889919 414.677188,440.43759 C416.964733,438.964927 417.567185,438.044314 416.484543,437.675753 C412.53428,435.0643 410.090604,431.582713 409.153515,427.23099 C408.223108,422.910298 408.92599,418.491359 411.262162,413.974175 C410.324811,411.027955 410.324811,408.55054 411.262162,406.541932 C411.44444,406.151336 413.185234,406.41915 416.484543,407.345375 C419.233419,406.465277 421.878087,406.197463 424.418546,406.541932 C430.343941,407.345375 433.035693,410.519406 434.762879,413.974175 C436.469803,417.388417 437.464137,419.07983 435.365462,426.226294 C433.748015,431.734062 432.352549,434.96374 426.226294,437.675753 C425.84209,438.185005 425.623711,439.382678 427.029737,438.679665 C454.648101,422.711229 463.98813,417.589278 491.606495,400.114386 C491.606495,394.791573 493.853377,391.720106 495.724534,389.670014 C497.83318,387.359723 499.440067,385.451545 504.762879,384.045519 C520.530454,361.549106 531.468872,347.541331 538.407068,340.86044 C546.541932,333.02726 552.567757,330.817398 554.375505,330.817398 C561.766418,330.817398 561.420482,337.870425 550.760402,351.908178 C546.642363,357.331028 531.075648,371.491717 512.094299,388.665318 C512.094299,391.175686 513.547933,395.809625 508.177905,401.119082 C504.60943,404.647306 501.549106,408.149211 494.117255,405.93935 C494.117255,408.149211 468.507499,448.421416 429.239598,479.353984 C421.504755,485.446965 393.746327,507.86501 354.92109,510.186514 C343.17034,510.889134 301.592147,512.596452 265.236337,482.467719 C263.127298,483.873745 259.052693,484.989311 256.197599,483.873745 C253.342505,482.758178 251.176079,481.463415 250.071344,476.542324 C230.788704,470.918221 219.138776,461.07604 215.523281,457.761836 C209.77795,452.495284 209.248891,445.971272 211.907786,441.793008 C213.313812,439.583539 221.527874,439.348883 224.461588,441.793008 C225.364925,442.545593 231.345972,448.990282 238.220555,455.049823 C245.103304,461.116563 252.881326,466.799143 256.700143,469.210904 Z M249.16747,470.315246 C247.258396,468.664155 235.810225,462.381244 225.968044,450.831746 C223.496757,447.931766 216.744307,444.969772 216.226294,446.412807 C215.338281,448.886558 218.801461,455.338379 226.771487,460.272205 C237.316681,466.800182 252.883396,473.52902 249.16747,470.315246 Z M507.775792,386.75714 C518.488369,376.647144 529.334854,366.537149 540.315246,356.427155 C549.316281,348.139616 556.307015,336.915381 553.873353,336.341071 C549.617573,335.336767 539.497486,344.4472 533.184687,352.91209 C524.34681,364.762879 515.877178,376.044562 507.775792,386.75714 Z M404.98582,449.372313 C403.579794,452.586087 404.065545,453.014824 399.462147,459.401412 C397.231864,462.495627 401.91445,459.527228 404.98582,453.576448 C405.931666,451.743871 405.686737,447.770218 404.98582,449.372313 Z" id="Hammock" fill="#121212" fill-rule="nonzero"></path>
        </g>
        <text id="A-software-engineer" font-family="Montserrat-ExtraBold, Montserrat" font-size="72" font-weight="600" line-spacing="72" fill="#121212">
            <tspan x="710" y="181">A</tspan>
            <tspan x="710" y="253">software</tspan>
            <tspan x="710" y="325">engineers</tspan>
            <tspan x="710" y="397">journal.</tspan>
        </text>
        <text id="themissingsemicolon." font-family="Montserrat-Bold, Montserrat" font-size="36" font-weight="bold" fill="#CACACA">
            <tspan x="663.178" y="511">themissingsemicolon.blog</tspan>
        </text>
    </g>
</svg>